<svg width="316" height="216" viewBox="0 0 316 216" fill="none" xmlns="http://www.w3.org/2000/svg">
<path d="M222.317 447.125L88.1792 312.987C77.5333 321.504 65.2906 328.247 51.451 333.215C37.6115 338.183 22.8847 340.667 7.27083 340.667C-31.409 340.667 -64.1414 327.267 -90.9263 300.468C-117.711 273.669 -131.111 240.936 -131.125 202.271C-131.139 163.605 -117.74 130.873 -90.9263 104.074C-64.113 77.2746 -31.3806 63.875 7.27083 63.875C45.9223 63.875 78.6618 77.2746 105.489 104.074C132.317 130.873 145.709 163.605 145.667 202.271C145.667 217.885 143.183 232.611 138.215 246.451C133.247 260.291 126.504 272.533 117.987 283.179L252.125 417.317L222.317 447.125ZM7.27083 298.083C33.8854 298.083 56.5114 288.772 75.1487 270.149C93.786 251.526 103.098 228.9 103.083 202.271C103.069 175.642 93.7576 153.023 75.1487 134.414C56.5397 115.805 33.9138 106.487 7.27083 106.458C-19.3721 106.43 -41.991 115.749 -60.5857 134.414C-79.1804 153.08 -88.4991 175.699 -88.5417 202.271C-88.5843 228.843 -79.2656 251.469 -60.5857 270.149C-41.9058 288.829 -19.287 298.14 7.27083 298.083Z" fill="white"/>
</svg>
