<svg width="123" height="511" viewBox="0 0 123 511" fill="none" xmlns="http://www.w3.org/2000/svg">
<g filter="url(#filter0_d_27_141)">
<path d="M417.317 447.125L283.179 312.987C272.533 321.504 260.291 328.247 246.451 333.215C232.611 338.183 217.885 340.667 202.271 340.667C163.591 340.667 130.859 327.267 104.074 300.468C77.2888 273.669 63.8892 240.936 63.875 202.271C63.8608 163.605 77.2604 130.873 104.074 104.074C130.887 77.2746 163.619 63.875 202.271 63.875C240.922 63.875 273.662 77.2746 300.489 104.074C327.317 130.873 340.709 163.605 340.667 202.271C340.667 217.885 338.183 232.611 333.215 246.451C328.247 260.291 321.504 272.533 312.988 283.179L447.125 417.317L417.317 447.125ZM202.271 298.083C228.885 298.083 251.511 288.772 270.149 270.149C288.786 251.526 298.098 228.9 298.083 202.271C298.069 175.642 288.758 153.023 270.149 134.414C251.54 115.805 228.914 106.487 202.271 106.458C175.628 106.43 153.009 115.749 134.414 134.414C115.82 153.08 106.501 175.699 106.458 202.271C106.416 228.843 115.734 251.469 134.414 270.149C153.094 288.829 175.713 298.14 202.271 298.083Z" fill="black"/>
</g>
<defs>
<filter id="filter0_d_27_141" x="-4" y="0" width="519" height="519" filterUnits="userSpaceOnUse" color-interpolation-filters="sRGB">
<feFlood flood-opacity="0" result="BackgroundImageFix"/>
<feColorMatrix in="SourceAlpha" type="matrix" values="0 0 0 0 0 0 0 0 0 0 0 0 0 0 0 0 0 0 127 0" result="hardAlpha"/>
<feOffset dy="4"/>
<feGaussianBlur stdDeviation="2"/>
<feComposite in2="hardAlpha" operator="out"/>
<feColorMatrix type="matrix" values="0 0 0 0 0 0 0 0 0 0 0 0 0 0 0 0 0 0 0.25 0"/>
<feBlend mode="normal" in2="BackgroundImageFix" result="effect1_dropShadow_27_141"/>
<feBlend mode="normal" in="SourceGraphic" in2="effect1_dropShadow_27_141" result="shape"/>
</filter>
</defs>
</svg>
