<svg width="250" height="174" viewBox="0 0 250 174" fill="none" xmlns="http://www.w3.org/2000/svg">
<path d="M110.688 48.5713C102.45 20.7898 65.3277 11.8404 44.0531 32.6033C43.7476 32.9014 43.4422 33.2045 43.1374 33.5127C12.6373 64.3349 27.0459 140.291 90.699 159.542C154.352 178.794 220.56 143.639 224.279 112.213C227.999 80.7862 198.633 70.9117 153.059 79.6996C127.311 84.664 115.816 65.8658 110.688 48.5713Z" fill="#CADFF5"/>
<path d="M30.6462 114.263C25.4869 107.834 17.7036 109.123 15.9882 116.843C15.4215 119.394 15.5494 122.585 16.9387 126.546C22.2308 141.638 32.967 145.814 38.4246 136.101C41.7934 130.105 35.7592 120.635 30.6462 114.263Z" fill="#CADFF5"/>
<path d="M227.562 114.956C227.249 120.69 232.8 124.006 238.1 121.128C239.852 120.177 241.521 118.563 242.828 115.937C247.807 105.933 243.415 98.4692 234.692 100.419C229.309 101.622 227.873 109.274 227.562 114.956Z" fill="#CADFF5"/>
<path d="M20.5309 67.2585C19.6288 71.0542 15.364 72.2932 12.4596 69.5304C11.4998 68.6169 10.7208 67.2853 10.3745 65.3525C9.05436 57.9897 13.3633 53.8493 18.6816 56.5772C21.9638 58.261 21.4248 63.4966 20.5309 67.2585Z" fill="#CADFF5"/>
<path d="M165.196 21.3982C165.196 22.0252 164.921 22.5966 164.473 23.0106C164.031 23.4272 163.416 23.6822 162.741 23.6822H110.22C108.871 23.6822 107.766 22.6548 107.766 21.3982C107.766 20.7711 108.041 20.1997 108.489 19.7863C108.931 19.3697 109.546 19.1141 110.22 19.1141H112.703C113.683 16.9961 115.947 15.5158 118.583 15.5158C120.356 15.5158 121.961 16.1874 123.123 17.2704C124.67 14.831 127.524 13.1922 130.791 13.1922C131.689 13.1922 132.554 13.3188 133.37 13.548C135.079 10.5605 138.457 8.52649 142.35 8.52649C147.026 8.52649 150.959 11.4614 152.147 15.455C153.008 15.0547 153.98 14.8254 155.011 14.8254C157.927 14.8254 160.387 16.6353 161.161 19.1141H162.743C164.09 19.1141 165.196 20.142 165.196 21.3982Z" fill="#CADFF5"/>
<path d="M196.563 61.6834C196.563 62.2714 196.305 62.8079 195.886 63.1961C195.471 63.5868 194.894 63.8262 194.261 63.8262H144.98C143.715 63.8262 142.677 62.8621 142.677 61.6828C142.677 61.0943 142.936 60.5583 143.356 60.1701C143.771 59.7794 144.348 59.5395 144.98 59.5395H147.31C148.23 57.552 150.354 56.1633 152.827 56.1633C154.492 56.1633 155.997 56.7934 157.087 57.8096C158.539 55.5205 161.216 53.983 164.282 53.983C165.124 53.983 165.935 54.1014 166.701 54.3165C168.305 51.5137 171.474 49.6052 175.128 49.6052C179.515 49.6052 183.206 52.3589 184.32 56.1066C185.128 55.7311 186.04 55.516 187.008 55.516C189.744 55.516 192.052 57.214 192.778 59.54H194.262C195.526 59.54 196.563 60.5041 196.563 61.6834Z" fill="#CADFF5"/>
<path d="M208.814 26.9029C206.904 26.9029 205.35 25.4585 205.35 23.6831C205.35 21.9077 206.904 20.4633 208.814 20.4633C210.723 20.4633 212.277 21.9077 212.277 23.6831C212.277 25.4585 210.723 26.9029 208.814 26.9029ZM208.814 21.4734C207.503 21.4734 206.437 22.4644 206.437 23.6831C206.437 24.9013 207.503 25.8927 208.814 25.8927C210.124 25.8927 211.19 24.9013 211.19 23.6831C211.19 22.4649 210.124 21.4734 208.814 21.4734Z" fill="#3B73A9"/>
<path d="M221.282 38.1988C219.372 38.1988 217.819 36.7544 217.819 34.979C217.819 33.2036 219.372 31.7592 221.282 31.7592C223.192 31.7592 224.746 33.2036 224.746 34.979C224.746 36.7544 223.192 38.1988 221.282 38.1988ZM221.282 32.7693C219.972 32.7693 218.905 33.7608 218.905 34.979C218.905 36.1972 219.972 37.1886 221.282 37.1886C222.592 37.1886 223.659 36.1972 223.659 34.979C223.659 33.7603 222.592 32.7693 221.282 32.7693Z" fill="#FD7C78"/>
<path d="M225.561 48.6611C225.261 48.6611 225.018 48.4349 225.018 48.156V45.9287C225.018 45.6498 225.261 45.4236 225.561 45.4236C225.861 45.4236 226.104 45.6498 226.104 45.9287V48.156C226.104 48.4349 225.861 48.6611 225.561 48.6611Z" fill="#3B73A9"/>
<path d="M225.561 52.5596C225.261 52.5596 225.018 52.3333 225.018 52.0545V49.8271C225.018 49.5482 225.261 49.322 225.561 49.322C225.861 49.322 226.104 49.5482 226.104 49.8271V52.0545C226.104 52.3333 225.861 52.5596 225.561 52.5596Z" fill="#3B73A9"/>
<path d="M228.925 49.4976H226.773C226.473 49.4976 226.23 49.2714 226.23 48.9925C226.23 48.7137 226.473 48.4874 226.773 48.4874H228.925C229.225 48.4874 229.469 48.7137 229.469 48.9925C229.468 49.2714 229.225 49.4976 228.925 49.4976Z" fill="#3B73A9"/>
<path d="M224.351 49.4976H222.199C221.899 49.4976 221.656 49.2714 221.656 48.9925C221.656 48.7137 221.899 48.4874 222.199 48.4874H224.351C224.651 48.4874 224.894 48.7137 224.894 48.9925C224.894 49.2714 224.651 49.4976 224.351 49.4976Z" fill="#3B73A9"/>
<path d="M206.437 36.1813C206.137 36.1813 205.894 35.955 205.894 35.6762V33.4488C205.894 33.17 206.137 32.9437 206.437 32.9437C206.737 32.9437 206.981 33.17 206.981 33.4488V35.6762C206.981 35.955 206.737 36.1813 206.437 36.1813Z" fill="#015288"/>
<path d="M206.437 40.0791C206.137 40.0791 205.894 39.8529 205.894 39.574V37.3466C205.894 37.0678 206.137 36.8416 206.437 36.8416C206.737 36.8416 206.981 37.0678 206.981 37.3466V39.574C206.981 39.8529 206.737 40.0791 206.437 40.0791Z" fill="#015288"/>
<path d="M209.8 37.0175H207.648C207.348 37.0175 207.105 36.7913 207.105 36.5124C207.105 36.2336 207.348 36.0073 207.648 36.0073H209.8C210.1 36.0073 210.343 36.2336 210.343 36.5124C210.343 36.7913 210.1 37.0175 209.8 37.0175Z" fill="#015288"/>
<path d="M205.227 37.0175H203.075C202.775 37.0175 202.531 36.7913 202.531 36.5124C202.531 36.2336 202.775 36.0073 203.075 36.0073H205.227C205.527 36.0073 205.77 36.2336 205.77 36.5124C205.77 36.7913 205.527 37.0175 205.227 37.0175Z" fill="#015288"/>
<path d="M43.2817 19.4988C43.2817 17.7233 44.8355 16.2789 46.7452 16.2789C48.655 16.2789 50.2087 17.7233 50.2087 19.4988C50.2087 21.2742 48.655 22.7186 46.7452 22.7186C44.8355 22.7186 43.2817 21.2742 43.2817 19.4988ZM44.3684 19.4988C44.3684 20.7174 45.4349 21.7084 46.7452 21.7084C48.0556 21.7084 49.1221 20.7169 49.1221 19.4988C49.1221 18.2806 48.0556 17.2891 46.7452 17.2891C45.4343 17.2891 44.3684 18.2801 44.3684 19.4988Z" fill="#3B73A9"/>
<path d="M29.3743 31.7718C29.3743 29.9964 30.928 28.552 32.8378 28.552C34.7475 28.552 36.3012 29.9964 36.3012 31.7718C36.3012 33.5472 34.7475 34.9917 32.8378 34.9917C30.928 34.9917 29.3743 33.5472 29.3743 31.7718ZM30.4609 31.7718C30.4609 32.9905 31.5274 33.9815 32.8378 33.9815C34.1481 33.9815 35.2146 32.9905 35.2146 31.7718C35.2146 30.5531 34.1487 29.5622 32.8378 29.5622C31.5268 29.5622 30.4609 30.5536 30.4609 31.7718Z" fill="#FD7C78"/>
<path d="M22.173 36.2897C22.4729 36.2897 22.7163 36.0634 22.7163 35.7846V33.5572C22.7163 33.2784 22.4729 33.0521 22.173 33.0521C21.873 33.0521 21.6296 33.2784 21.6296 33.5572V35.7846C21.6296 36.0634 21.873 36.2897 22.173 36.2897Z" fill="#3B73A9"/>
<path d="M22.173 40.1882C22.4729 40.1882 22.7163 39.962 22.7163 39.6831V37.4558C22.7163 37.1769 22.4729 36.9507 22.173 36.9507C21.873 36.9507 21.6296 37.1769 21.6296 37.4558V39.6831C21.6296 39.962 21.873 40.1882 22.173 40.1882Z" fill="#3B73A9"/>
<path d="M18.8104 37.1254H20.9624C21.2624 37.1254 21.5057 36.8992 21.5057 36.6203C21.5057 36.3415 21.2624 36.1152 20.9624 36.1152H18.8104C18.5104 36.1152 18.2671 36.3415 18.2671 36.6203C18.2671 36.8997 18.5104 37.1254 18.8104 37.1254Z" fill="#3B73A9"/>
<path d="M23.3832 37.1254H25.5352C25.8351 37.1254 26.0785 36.8992 26.0785 36.6203C26.0785 36.3415 25.8351 36.1152 25.5352 36.1152H23.3832C23.0832 36.1152 22.8398 36.3415 22.8398 36.6203C22.8398 36.8997 23.0832 37.1254 23.3832 37.1254Z" fill="#3B73A9"/>
<path d="M34.69 19.1697C34.99 19.1697 35.2334 18.9434 35.2334 18.6646V16.4372C35.2334 16.1584 34.99 15.9321 34.69 15.9321C34.3901 15.9321 34.1467 16.1584 34.1467 16.4372V18.6646C34.1467 18.9434 34.3901 19.1697 34.69 19.1697Z" fill="#015288"/>
<path d="M34.69 23.0679C34.99 23.0679 35.2334 22.8416 35.2334 22.5628V20.3354C35.2334 20.0566 34.99 19.8303 34.69 19.8303C34.3901 19.8303 34.1467 20.0566 34.1467 20.3354V22.5628C34.1467 22.8416 34.3901 23.0679 34.69 23.0679Z" fill="#015288"/>
<path d="M31.3285 20.0043H33.4805C33.7805 20.0043 34.0238 19.7781 34.0238 19.4992C34.0238 19.2204 33.7805 18.9941 33.4805 18.9941H31.3285C31.0285 18.9941 30.7852 19.2204 30.7852 19.4992C30.7852 19.7781 31.0285 20.0043 31.3285 20.0043Z" fill="#015288"/>
<path d="M35.9029 20.0043H38.055C38.3549 20.0043 38.5983 19.7781 38.5983 19.4992C38.5983 19.2204 38.3549 18.9941 38.055 18.9941H35.9029C35.603 18.9941 35.3596 19.2204 35.3596 19.4992C35.3596 19.7781 35.603 20.0043 35.9029 20.0043Z" fill="#015288"/>
<path d="M170.83 31.2469V40.5647C170.83 41.7966 169.754 42.7956 168.43 42.7956H150.231L144.737 44.6282C144.173 44.8165 143.632 44.3008 143.849 43.7825L145.927 38.7929V31.2469C145.927 30.015 147.003 29.016 148.328 29.016H168.43C169.755 29.0155 170.83 30.015 170.83 31.2469Z" fill="#FD7C78"/>
<g opacity="0.5">
<path d="M166.993 33.8836H150.298C149.932 33.8836 149.636 33.6077 149.636 33.2681C149.636 32.928 149.932 32.6527 150.298 32.6527H166.993C167.359 32.6527 167.655 32.9285 167.655 33.2681C167.656 33.6077 167.359 33.8836 166.993 33.8836Z" fill="#D64E5A"/>
<path d="M166.993 36.362H150.298C149.932 36.362 149.636 36.0861 149.636 35.746C149.636 35.4059 149.932 35.1306 150.298 35.1306H166.993C167.359 35.1306 167.655 35.4064 167.655 35.746C167.656 36.0861 167.359 36.362 166.993 36.362Z" fill="#D64E5A"/>
<path d="M166.993 38.8413H150.298C149.932 38.8413 149.636 38.5655 149.636 38.2259C149.636 37.8858 149.932 37.61 150.298 37.61H166.993C167.359 37.61 167.655 37.8858 167.655 38.2259C167.656 38.5655 167.359 38.8413 166.993 38.8413Z" fill="#D64E5A"/>
</g>
<path d="M101.381 8.05575C101.439 8.06942 101.502 8.06992 101.565 8.05474C102.228 7.89329 102.613 7.8275 102.616 7.82699C102.817 7.79309 102.951 7.61443 102.914 7.42768C102.878 7.24093 102.686 7.11693 102.485 7.15033C102.468 7.15337 102.072 7.22017 101.377 7.38972C101.179 7.4378 101.061 7.62556 101.113 7.80928C101.149 7.93479 101.254 8.02589 101.381 8.05575Z" fill="#CADFF5"/>
<path d="M79.9012 23.8108C79.5566 24.3949 79.225 25.0002 78.9147 25.6105C78.838 25.7618 78.6578 25.8367 78.4895 25.7973C78.4667 25.7917 78.4444 25.7846 78.422 25.775C78.2375 25.694 78.1585 25.4891 78.2457 25.3175C78.562 24.695 78.9006 24.077 79.2523 23.4808C79.3502 23.3143 79.574 23.2536 79.7542 23.3447C79.9338 23.4353 79.9992 23.6443 79.9012 23.8108Z" fill="#CADFF5"/>
<path d="M78.0474 27.4617C77.7806 28.0786 77.527 28.7163 77.294 29.3575C77.2319 29.5286 77.0386 29.6242 76.853 29.5807C76.8437 29.5787 76.8345 29.5762 76.8247 29.5731C76.6314 29.5124 76.5274 29.317 76.5928 29.1374C76.8307 28.484 77.0887 27.8341 77.3609 27.2056C77.4371 27.0294 77.6527 26.9439 77.8422 27.0148C78.0322 27.0856 78.1236 27.2855 78.0474 27.4617Z" fill="#CADFF5"/>
<path d="M74.9123 37.53C74.7337 37.488 74.6129 37.3276 74.6368 37.153C74.7315 36.4687 74.8426 35.7845 74.9678 35.119C75.0032 34.9317 75.1948 34.8067 75.3957 34.8396C75.5993 34.8735 75.7316 35.0507 75.6962 35.2374C75.5726 35.8928 75.4632 36.5664 75.3701 37.2406C75.344 37.4288 75.1589 37.5619 74.9564 37.5376C74.9417 37.5361 74.927 37.5336 74.9123 37.53Z" fill="#CADFF5"/>
<path d="M76.3962 30.8658C76.5927 30.9169 76.7081 31.1067 76.6526 31.2894C76.5622 31.5911 76.4746 31.8967 76.3929 32.1974C76.2982 32.5445 76.2073 32.8993 76.1218 33.2521C76.0772 33.4373 75.879 33.5537 75.6798 33.5122C75.6765 33.5117 75.6732 33.5107 75.67 33.5102C75.4762 33.4646 75.3564 33.284 75.4005 33.1018C75.487 32.7429 75.5801 32.3821 75.6765 32.0293C75.7598 31.7231 75.8485 31.4124 75.9411 31.1052C75.995 30.925 76.1937 30.8187 76.388 30.8643C76.3902 30.8648 76.3935 30.8653 76.3962 30.8658Z" fill="#CADFF5"/>
<path d="M81.0049 22.0716C80.9173 22.2007 80.7523 22.2569 80.6015 22.2215C80.5645 22.2129 80.5285 22.1987 80.4948 22.1789C80.3222 22.0777 80.2705 21.8652 80.3799 21.7047C80.7741 21.1247 81.1927 20.5503 81.6239 19.9971C81.7437 19.8433 81.9745 19.8089 82.1405 19.9207C82.3055 20.0321 82.3425 20.2471 82.2227 20.4005C81.8003 20.9415 81.3909 21.5038 81.0049 22.0716Z" fill="#CADFF5"/>
<path d="M99.4915 8.63997C98.8169 8.85456 98.1321 9.09445 97.4565 9.35408C97.3797 9.38344 97.2992 9.38749 97.2246 9.36977C97.1151 9.34396 97.0199 9.27209 96.9736 9.16784C96.8957 8.99222 96.9856 8.7913 97.1739 8.71893C97.8637 8.45424 98.5627 8.20877 99.2519 7.99014C99.4452 7.9289 99.6553 8.02506 99.7212 8.20422C99.7876 8.38287 99.6847 8.57823 99.4915 8.63997Z" fill="#CADFF5"/>
<path d="M93.5418 11.1142C93.4558 11.1588 93.3589 11.1679 93.2707 11.1471C93.1754 11.1249 93.0899 11.0672 93.0388 10.9816C92.9391 10.8156 93.0028 10.6066 93.1814 10.514C93.8249 10.1805 94.4869 9.8601 95.1499 9.56201C95.334 9.47951 95.5544 9.55088 95.6437 9.72194C95.7325 9.893 95.6557 10.0985 95.4717 10.181C94.8217 10.473 94.1727 10.7873 93.5418 11.1142Z" fill="#CADFF5"/>
<path d="M86.5259 15.862C86.4306 15.945 86.3 15.9724 86.1818 15.9445C86.1154 15.9288 86.0534 15.8959 86.0033 15.8463C85.8639 15.7077 85.871 15.49 86.0201 15.3605C86.5569 14.8933 87.1171 14.4348 87.6866 13.9981C87.8439 13.8771 88.0769 13.8978 88.2076 14.0441C88.3377 14.1904 88.3153 14.407 88.158 14.5279C87.6005 14.9556 87.0512 15.4045 86.5259 15.862Z" fill="#CADFF5"/>
<path d="M89.8781 13.2906C89.7855 13.3528 89.6723 13.3701 89.5694 13.3458C89.4883 13.3265 89.4142 13.2825 89.3614 13.2147C89.2417 13.0613 89.2776 12.8462 89.4431 12.7344C90.0365 12.3331 90.6533 11.9423 91.2766 11.5724C91.4487 11.4701 91.6773 11.5172 91.7873 11.6771C91.8973 11.8371 91.8466 12.0496 91.6746 12.1519C91.0638 12.5142 90.4595 12.8974 89.8781 13.2906Z" fill="#CADFF5"/>
<path d="M83.5518 18.8041C83.4577 18.9099 83.3101 18.9499 83.1762 18.9185C83.1245 18.9064 83.0749 18.8836 83.0314 18.8502C82.874 18.7292 82.8523 18.5126 82.9824 18.3664C83.4517 17.8385 83.946 17.3182 84.4506 16.8192C84.5906 16.6811 84.8241 16.674 84.9733 16.8045C85.1219 16.9346 85.1295 17.1522 84.9896 17.2904C84.4953 17.7783 84.0119 18.2879 83.5518 18.8041Z" fill="#CADFF5"/>
<path d="M101.75 5.72958L101.002 0L120.605 2.78407L101.75 5.72958Z" fill="#FD7C78"/>
<path d="M120.606 2.78345L102.497 7.18806L102.449 7.20071L101.54 8.23315L101.751 5.72947L120.606 2.78345Z" fill="#D64E5A"/>
<path d="M101.54 8.23374L103.167 8.2135L102.449 7.20129L101.54 8.23374Z" fill="#B2304F"/>
<path d="M104.728 6.64576L102.449 7.19994L106.156 12.4265L120.605 2.78369L104.728 6.64576Z" fill="#FD7C78"/>
<path d="M60.1451 169.219C53.2067 162.665 39.0119 148.211 29.9852 131.856C16.7007 107.785 3.37863 109.936 0.764956 118.446C-5.14997 137.702 24.5967 158.421 43.1864 169.219H60.1451Z" fill="#3B73A9"/>
<path d="M54.6206 169.219C44.0793 161.528 35.1685 152.789 28.9754 146.08C20.0695 136.432 14.7045 128.784 14.6506 128.707C14.4589 128.433 14.0626 128.354 13.767 128.534C13.4703 128.711 13.3859 129.079 13.5792 129.355C13.6314 129.432 19.0346 137.133 27.9911 146.839C33.9774 153.327 42.4896 161.7 52.5644 169.219H54.6206V169.219Z" fill="#015288"/>
<path d="M58.9966 161.236C55.881 155.456 49.9732 143.345 47.7825 131.005C44.5096 112.567 35.2596 111.368 31.6094 116.452C21.5826 130.415 45.612 156.098 53.2766 163.701L58.9966 161.236Z" fill="#015288"/>
<path d="M56.8194 162.174C50.9676 154.54 46.6505 146.255 43.8888 140.161C40.2217 132.068 38.429 125.986 38.4116 125.924C38.3479 125.706 38.1051 125.577 37.8699 125.637C37.6341 125.696 37.4953 125.921 37.5601 126.14C37.577 126.201 39.3822 132.326 43.0695 140.467C45.8345 146.572 50.1521 154.862 56.0055 162.525L56.8194 162.174Z" fill="#01305A"/>
<path d="M195.54 110.074C201.481 103.601 214.381 88.5 221.93 71.8528C232.765 47.9617 245.661 49.1278 248.817 57.0847C256.979 77.6638 220.777 103.181 205.682 112.727L195.54 110.074Z" fill="#3B73A9"/>
<path d="M199.109 111.007C209.563 102.509 218.19 92.7165 223.996 85.3765C231.76 75.5617 236.296 67.8952 236.342 67.8173C236.503 67.5425 236.876 67.4407 237.172 67.5931C237.47 67.7429 237.578 68.0891 237.415 68.3649C237.371 68.4418 232.804 76.1629 224.995 86.0359C219.26 93.2889 210.786 102.921 200.513 111.374L199.109 111.007Z" fill="#015288"/>
<path d="M196.476 101.867C199.006 96.1347 203.715 84.1669 204.855 72.2279C206.557 54.3893 215.303 52.6256 219.185 57.2402C229.847 69.9125 208.869 96.0623 202.133 103.84L196.476 101.867Z" fill="#015288"/>
<path d="M198.631 102.617C203.633 94.9303 207.118 86.7253 209.285 80.7169C212.164 72.7387 213.406 66.8061 213.419 66.7459C213.463 66.5333 213.685 66.3937 213.914 66.4352C214.144 66.4751 214.294 66.6816 214.249 66.8952C214.238 66.9544 212.986 72.9285 210.092 80.9542C207.921 86.9733 204.436 95.1833 199.435 102.898L198.631 102.617Z" fill="#01305A"/>
<path d="M232.146 128.871C234.005 119.713 237.58 111.361 241.644 114.807C245.711 118.257 239.265 132.522 229.649 140.426L227.069 143.843C233.969 137.968 245.07 134.465 248.083 137.782C251.078 141.079 243.461 142.787 236.224 143.269C230.715 143.636 227.199 145.05 225.493 145.931L213.31 162.065C224.265 152.791 241.792 147.279 246.561 152.529C251.312 157.76 239.225 160.471 227.742 161.235C219.065 161.812 213.5 164.028 210.771 165.428L208.342 168.645C207.676 168.341 207.012 168.033 206.35 167.722L220.844 148.526C220.929 146.553 220.733 143.764 219.677 140.289C217.704 133.797 216.844 126.557 221.197 128.055C224.975 129.354 225.665 137.636 223.476 145.041L228.488 138.402C229.661 136.103 231.343 132.824 232.146 128.871Z" fill="#3B73A9"/>
<path d="M40.201 55.6413C39.2183 48.0589 36.7849 41.0479 33.2599 43.6599C29.7316 46.2744 34.1646 58.2655 41.5642 65.2168L43.4728 68.1411C38.1758 62.9874 29.3042 59.5601 26.6454 62.12C24.0034 64.6641 30.1317 66.4471 36.0211 67.2078C40.5042 67.7873 43.2964 69.1214 44.6395 69.9286L53.6542 83.7401C45.2405 75.6015 31.232 70.2044 27.0248 74.2553C22.8329 78.292 32.5565 81.1216 41.9017 82.3286C48.9637 83.2411 53.3842 85.3354 55.533 86.6184L57.3306 89.372C57.8929 89.1569 58.4542 88.9393 59.0139 88.7182L48.2886 72.2865C48.3354 70.669 48.6593 68.3982 49.7269 65.61C51.7205 60.4023 52.8491 54.5254 49.2021 55.5295C46.037 56.4005 44.9863 63.1377 46.3418 69.3036L42.6328 63.6211C41.8086 61.6817 40.6256 58.9143 40.201 55.6413Z" fill="#3B73A9"/>
<path d="M122.356 166.259C122.452 164.787 122.541 163.385 122.624 162.086C122.96 156.774 123.176 153.149 123.176 153.149L120.939 153.056L119.677 153.003L104.465 152.375C104.465 152.375 104.188 156.43 103.862 162.384C103.795 163.603 103.726 164.901 103.657 166.26H122.356V166.259Z" fill="#01305A"/>
<path d="M120.938 153.056L123.176 153.149C123.176 153.149 122.96 156.775 122.624 162.086C116.779 162.539 110.397 162.723 103.861 162.384C104.187 156.429 104.464 152.374 104.464 152.374L119.676 153.002L120.938 153.056Z" fill="#001336"/>
<path d="M120.14 166.259C120.492 160.585 120.782 155.725 120.939 153.056L119.678 153.003C119.52 155.684 119.229 160.566 118.875 166.259H120.14Z" fill="#001336"/>
<path d="M127.26 166.259H145.959C145.89 164.9 145.821 163.602 145.755 162.384C145.428 156.429 145.151 152.374 145.151 152.374L129.939 153.002L128.677 153.056L126.44 153.149C126.44 153.149 126.656 156.774 126.992 162.085C127.074 163.385 127.164 164.787 127.26 166.259Z" fill="#01305A"/>
<path d="M128.677 153.056L126.44 153.149C126.44 153.149 126.656 156.775 126.992 162.086C132.836 162.539 139.218 162.723 145.755 162.384C145.428 156.429 145.151 152.374 145.151 152.374L129.939 153.002L128.677 153.056Z" fill="#001336"/>
<path d="M130.739 166.259C130.386 160.566 130.095 155.684 129.937 153.003L128.676 153.056C128.833 155.724 129.122 160.585 129.475 166.259H130.739Z" fill="#001336"/>
<path d="M147.31 150.41C147.31 152.081 147.306 153.406 147.294 154.3C143.037 155.366 138.783 156.138 134.529 156.611C134.416 156.624 134.302 156.637 134.188 156.65C133.999 156.67 133.81 156.692 133.624 156.711C133.576 156.715 133.529 156.72 133.481 156.723C132.742 156.797 132.008 156.864 131.269 156.921C129.735 157.039 127.505 157.14 125.971 157.179L124.782 150.593L123.591 157.179C122.712 157.167 121.175 157.141 120.295 157.104C119.972 157.089 119.653 157.075 119.333 157.055C119.047 157.043 118.756 157.025 118.469 157.006C118.338 156.999 118.207 156.992 118.077 156.983C117.833 156.966 117.592 156.95 117.348 156.932C111.971 156.528 106.598 155.653 101.224 154.3C101.197 152.331 101.169 148.324 101.162 143.152C101.162 142.868 101.161 142.581 101.162 142.289C101.155 136.586 101.178 129.587 101.251 122.378C101.258 121.808 101.265 121.237 101.272 120.665C101.279 119.893 101.288 119.116 101.3 118.337C101.303 118.18 101.304 118.024 101.307 117.867C101.31 117.554 101.314 117.24 101.321 116.927C101.328 116.471 101.334 116.016 101.341 115.562C101.358 114.529 101.373 113.497 101.392 112.471C101.65 98.1613 102.17 85.0087 103.161 81.6618C103.253 81.3541 103.349 81.1279 103.446 80.9938C103.552 80.8455 103.683 80.6936 103.829 80.5393C104.013 80.3439 104.227 80.143 104.468 79.9391C106.115 78.5285 108.976 76.8913 111.875 75.335C112.212 75.1549 112.553 74.9737 112.89 74.7945C112.94 74.7687 120.769 72.3136 120.819 72.2858L129.008 72.8187C129.991 73.3567 137.739 75.8042 138.688 76.3548C138.97 76.5183 139.247 76.6818 139.52 76.8442C141.748 78.1803 143.641 79.5053 144.468 80.6329C145.659 82.2631 146.38 96.8732 146.797 112.768C146.807 113.133 146.817 113.5 146.827 113.865C146.87 115.546 146.909 117.238 146.945 118.926C146.982 120.595 147.014 122.26 147.044 123.912C147.092 126.616 147.134 129.28 147.168 131.844C147.172 132.135 147.175 132.424 147.179 132.714C147.212 135.214 147.236 137.611 147.257 139.849C147.26 140.143 147.262 140.432 147.264 140.719C147.291 144.081 147.308 147.055 147.309 149.444V149.447C147.311 149.781 147.31 150.1 147.31 150.41Z" fill="#3B73A9"/>
<path d="M125.192 83.7495L129.956 121.126L124.801 130.376L119.509 121.126L124.557 83.7606L125.192 83.7495Z" fill="#EDEDED"/>
<path d="M128.146 82.2622L124.834 87.2033L121.417 82.3057L124.782 76.3307L128.146 82.2622Z" fill="white"/>
<path d="M120.078 71.6873C120.078 71.6873 117.133 71.6579 116.135 73.8666C116.135 73.8666 115.834 80.6397 121.418 82.3048L124.782 76.3298C124.782 76.3298 120.589 75.1273 120.078 71.6873Z" fill="#015288"/>
<path d="M129.178 71.6873C129.178 71.6873 131.703 72.0304 132.7 74.2395C132.7 74.2395 133.723 80.6397 128.138 82.3048L124.781 76.3297C124.781 76.3297 128.666 75.1272 129.178 71.6873Z" fill="#015288"/>
<path d="M125.972 134.229C125.972 134.839 125.439 135.335 124.782 135.335C124.125 135.335 123.592 134.839 123.592 134.229C123.592 133.618 124.125 133.122 124.782 133.122C125.439 133.122 125.972 133.617 125.972 134.229Z" fill="#015288"/>
<path d="M125.972 143.045C125.972 143.656 125.439 144.151 124.782 144.151C124.125 144.151 123.592 143.656 123.592 143.045C123.592 142.434 124.125 141.939 124.782 141.939C125.439 141.939 125.972 142.434 125.972 143.045Z" fill="#015288"/>
<path d="M135.906 104.568H135.419C132.775 104.568 130.631 102.576 130.631 100.118V94.4008H140.694V100.118C140.694 102.575 138.55 104.568 135.906 104.568Z" fill="#015288"/>
<path d="M113.51 52.8781C113.51 52.8781 113.695 48.8212 113.107 47.2062C112.066 44.3498 112.567 42.1553 114.866 41.4721C117.497 40.6902 115.333 38.9882 117.872 38.2427C120.41 37.4972 121.027 39.5069 122.567 38.7397C124.107 37.9724 124.629 37.4192 126.155 37.2284C128.474 36.9384 128.621 38.9927 130.221 38.7189C132.879 38.2634 134.366 39.8576 134.906 41.4721C135.446 43.0866 135.034 43.5446 136.263 44.0183C138.09 44.7223 137.756 47.5165 136.753 48.6967C135.752 49.8764 135.916 50.3441 135.845 52.2116C135.774 54.0786 113.51 52.8781 113.51 52.8781Z" fill="#01305A"/>
<path d="M134.71 56.501C134.71 56.501 136.632 54.1193 138.06 56.089C139.489 58.0583 137.469 63.8754 133.971 62.4558L134.71 56.501Z" fill="#FB9E82"/>
<path d="M134.734 60.6574C134.863 60.6574 134.982 60.5779 135.019 60.457C135.561 58.6608 137.563 57.933 137.583 57.9259C137.735 57.8718 137.812 57.7134 137.754 57.5717C137.696 57.43 137.526 57.3586 137.373 57.4117C137.28 57.4446 135.074 58.2402 134.45 60.3087C134.406 60.4549 134.498 60.6063 134.654 60.6473C134.681 60.6538 134.708 60.6574 134.734 60.6574Z" fill="#FC7972"/>
<path d="M136.754 59.7529C136.809 59.7529 136.865 59.7388 136.914 59.7089C137.051 59.6264 137.091 59.4569 137.002 59.3288C136.988 59.3076 136.634 58.8055 135.893 58.4973C135.745 58.435 135.569 58.4973 135.503 58.636C135.436 58.7746 135.503 58.9371 135.652 58.9988C136.224 59.2372 136.503 59.6224 136.505 59.6264C136.562 59.7084 136.657 59.7529 136.754 59.7529Z" fill="#FC7972"/>
<path d="M114.906 56.501C114.906 56.501 112.985 54.1193 111.556 56.089C110.127 58.0583 112.147 63.8754 115.645 62.4558L114.906 56.501Z" fill="#FB9E82"/>
<path d="M114.881 60.6574C114.752 60.6574 114.633 60.5779 114.596 60.457C114.054 58.6608 112.053 57.933 112.033 57.9259C111.88 57.8718 111.804 57.7134 111.861 57.5717C111.919 57.43 112.09 57.3586 112.242 57.4117C112.335 57.4446 114.541 58.2402 115.165 60.3087C115.209 60.4549 115.118 60.6063 114.961 60.6473C114.934 60.6538 114.908 60.6574 114.881 60.6574Z" fill="#FC7972"/>
<path d="M112.862 59.7529C112.807 59.7529 112.752 59.7388 112.702 59.7089C112.565 59.6264 112.525 59.4569 112.614 59.3288C112.628 59.3076 112.982 58.8055 113.723 58.4973C113.872 58.435 114.047 58.4973 114.114 58.636C114.181 58.7746 114.114 58.9371 113.964 58.9988C113.392 59.2372 113.113 59.6224 113.111 59.6264C113.055 59.7084 112.959 59.7529 112.862 59.7529Z" fill="#FC7972"/>
<path d="M120.078 67.3888V73.1735C120.078 73.1735 121.934 76.1196 124.444 76.3205C126.951 76.5239 129.179 73.7839 129.179 73.7839V67.7957L120.078 67.3888Z" fill="#FDBEAB"/>
<path d="M120.078 67.3888V69.9557C121.762 71.6927 124.753 72.1269 129.178 71.5196V67.7957L120.078 67.3888Z" fill="#FB9E82"/>
<path d="M113.52 52.5339C113.633 54.782 113.864 57.5939 114.326 59.84V59.8466C114.326 59.8532 114.328 59.8597 114.331 59.8684C114.331 59.8704 114.333 59.8704 114.333 59.8729C114.447 60.4215 114.575 60.9377 114.714 61.4018C114.798 61.6741 114.888 61.9591 114.991 62.2506C116.466 66.5524 119.883 72.7785 128.471 69.9302C132.088 68.7317 133.972 65.2588 134.931 61.4924C134.987 61.2677 135.041 61.0455 135.087 60.8315C135.12 60.6887 135.15 60.5506 135.178 60.4144L135.219 60.2135C135.227 60.1791 135.231 60.1553 135.234 60.1401C135.236 60.1315 135.236 60.127 135.236 60.127C135.802 57.231 135.889 54.3027 135.847 52.21C135.803 50.0763 134.548 48.1242 132.55 47.0726C127.14 44.2197 121.428 45.2845 117.667 46.6277C115.055 47.5579 113.385 49.9401 113.52 52.5339Z" fill="#FDBEAB"/>
<path d="M114.322 59.8387C114.322 59.8387 114.322 59.8408 114.324 59.8453C114.324 59.8519 114.326 59.8585 114.329 59.8671C114.329 59.8691 114.331 59.8691 114.331 59.8716C114.387 60.0594 114.689 61.0893 114.989 62.2493C116.464 66.5512 119.881 72.7772 128.469 69.9289C132.086 68.7305 133.97 65.2576 134.93 61.4912C134.985 61.2665 135.039 61.0443 135.085 60.8302C135.118 60.6875 135.148 60.5493 135.176 60.4132L135.218 60.2123C135.225 60.1778 135.229 60.154 135.232 60.1389C135.234 60.1303 135.234 60.1257 135.234 60.1257L133.97 59.8883C133.729 61.0008 133.195 62.0479 132.539 62.9786C131.47 60.5989 126.049 62.1795 126.049 62.1795L126.023 62.1881C125.693 62.2832 125.354 62.3328 125.013 62.3328C124.662 62.3328 124.314 62.2812 123.975 62.1795C123.975 62.1795 118.618 60.5296 117.507 62.7994C116.396 61.2012 115.644 59.7522 115.644 59.7522L114.325 59.8387H114.322ZM124.999 63.2575C131.129 62.4887 130.165 65.5572 130.165 65.5572C129.484 66.1336 128.862 66.5547 128.444 66.7729C127.105 67.4662 125.789 67.7294 124.834 67.6864C123.893 67.6494 123.635 67.8291 121.256 66.6327C120.836 66.4231 120.411 66.1124 119.995 65.7429C119.995 65.7429 119.995 65.7429 119.993 65.7429V65.7409C119.89 65.1407 118.852 62.2746 124.999 63.2575Z" fill="#01305A"/>
<path d="M119.444 56.7164C119.444 57.3338 119.786 57.8343 120.209 57.8343C120.631 57.8343 120.973 57.3338 120.973 56.7164C120.973 56.0989 120.631 55.5984 120.209 55.5984C119.786 55.5984 119.444 56.0989 119.444 56.7164Z" fill="#01305A"/>
<path d="M129.003 56.7164C129.003 57.3338 129.346 57.8343 129.768 57.8343C130.19 57.8343 130.532 57.3338 130.532 56.7164C130.532 56.0989 130.19 55.5984 129.768 55.5984C129.345 55.5984 129.003 56.0989 129.003 56.7164Z" fill="#01305A"/>
<path d="M117.484 52.9455C117.484 52.9455 120.644 51.7846 123.077 52.7618L122.834 54.0195C122.834 54.0195 119.263 53.7386 117.464 54.4163C117.303 53.9324 117.279 53.443 117.484 52.9455Z" fill="#01305A"/>
<path d="M132.511 52.9517C132.511 52.9517 129.328 51.7821 126.877 52.7665L127.122 54.0337C127.122 54.0337 130.719 53.7508 132.531 54.4336C132.694 53.9462 132.718 53.4532 132.511 52.9517Z" fill="#01305A"/>
<path d="M124.706 61.7131C124.207 61.7131 123.712 61.5329 123.636 61.5036C123.485 61.4464 123.413 61.2859 123.474 61.1452C123.536 61.0046 123.708 60.9372 123.859 60.9944C124.127 61.0951 124.767 61.253 125.045 61.0987C125.098 61.0688 125.172 61.0096 125.19 60.8426C125.297 59.883 125.014 56.6662 125.012 56.6338C124.998 56.4825 125.119 56.3499 125.282 56.3373C125.446 56.3246 125.588 56.4375 125.601 56.5888C125.613 56.7229 125.891 59.8891 125.779 60.8993C125.736 61.2794 125.522 61.4742 125.349 61.5704C125.16 61.6761 124.932 61.7131 124.706 61.7131Z" fill="#FB9E82"/>
<path d="M128.474 63.8066C128.25 64.8563 127.503 66.7876 124.991 66.7876C122.472 66.7876 121.765 65.0228 121.523 63.8066H128.474Z" fill="white"/>
<path d="M113.519 52.5329C113.634 54.781 113.865 57.5924 114.326 59.84L115.648 59.7529C115.648 59.7529 115.327 57.8545 115.179 56.6181C115.032 55.3812 114.78 53.0699 115.916 52.7814C117.048 52.4954 116.384 49.8586 117.959 48.7154C119.535 47.5695 123.059 47.2552 125.383 48.5853C127.706 49.9128 130.325 48.4846 131.395 48.7154C132.468 48.9436 133.923 50.3177 133.529 51.6011C133.133 52.8816 134.316 53.6625 134.603 54.9895C134.889 56.317 133.973 59.8896 133.973 59.8896L135.235 60.1259C135.803 57.2295 135.888 54.3022 135.847 52.211C135.803 50.0758 134.549 48.1242 132.551 47.072C127.138 44.2196 121.427 45.283 117.667 46.6267C115.056 47.5584 113.386 49.9411 113.519 52.5329Z" fill="#01305A"/>
<path d="M105.138 79.4027C105.138 79.4027 97.3643 84.2264 92.3672 85.6607L95.7136 98.6968C95.7136 98.6968 96.1753 98.5187 101.846 96.2787L105.138 79.4027Z" fill="#3B73A9"/>
<path d="M143.258 79.4027C143.258 79.4027 158.119 86.4841 163.116 87.9184C161.205 91.123 159.985 94.1024 158.358 98.3982C158.358 98.3982 151.218 96.6421 145.547 94.4021L143.258 79.4027Z" fill="#3B73A9"/>
<path d="M203.643 166.345C203.368 161.508 203.152 158.349 203.152 158.349L187.899 158.979L186.634 159.032L184.391 159.125C184.391 159.125 184.561 161.985 184.834 166.345H203.643Z" fill="#375BC7"/>
<path d="M203.643 166.345C203.368 161.508 203.152 158.349 203.152 158.349L187.899 158.979L186.634 159.032L184.391 159.125C184.391 159.125 184.561 161.985 184.834 166.345H203.643Z" fill="#01305A"/>
<path d="M188.34 166.345C188.151 163.246 187.999 160.674 187.899 158.979L186.635 159.033C186.734 160.715 186.885 163.268 187.072 166.345H188.34Z" fill="#001336"/>
<path d="M180.033 166.345C180.308 161.984 180.478 159.125 180.478 159.125L178.043 159.024L176.78 158.971L161.714 158.349C161.714 158.349 161.549 160.771 161.322 164.623C161.29 165.168 161.257 165.745 161.223 166.345H180.033Z" fill="#01305A"/>
<path d="M177.605 166.346C177.792 163.263 177.943 160.708 178.042 159.025L176.779 158.972C176.679 160.666 176.526 163.241 176.338 166.345H177.605V166.346Z" fill="#001336"/>
<path d="M170.515 55.1359C170.515 61.527 174.747 65.9305 181.619 65.9305C188.494 65.9305 193.286 61.196 193.286 54.8049C193.286 53.0422 192.977 51.3963 192.382 49.9403C192.347 49.8537 192.311 49.7667 192.274 49.6826C192.201 49.5171 192.125 49.3517 192.044 49.1917C191.924 48.9448 191.79 48.7038 191.65 48.4705C189.859 45.4769 186.651 43.5735 182.34 43.5735C174.097 43.5735 170.515 48.7443 170.515 55.1359Z" fill="#01305A"/>
<path d="M174.694 45.2764C174.694 48.9775 177.922 51.9782 181.903 51.9782C185.885 51.9782 189.112 48.978 189.112 45.2764C189.112 41.5753 185.885 38.5746 181.903 38.5746C177.922 38.5746 174.694 41.5753 174.694 45.2764Z" fill="#01305A"/>
<path d="M172.059 57.8863C172.059 57.8863 170.15 55.5187 168.729 57.4763C167.309 59.4339 169.317 65.2156 172.794 63.8046L172.059 57.8863Z" fill="#FB9E82"/>
<path d="M172.033 62.0183C171.905 62.0183 171.787 61.9393 171.75 61.8189C171.211 60.0339 169.222 59.3101 169.202 59.3031C169.051 59.2494 168.974 59.0915 169.031 58.9508C169.089 58.8101 169.258 58.7387 169.41 58.7924C169.503 58.8253 171.695 59.6158 172.316 61.6716C172.359 61.8169 172.268 61.9677 172.112 62.0082C172.087 62.0148 172.059 62.0183 172.033 62.0183Z" fill="#FC7972"/>
<path d="M170.027 61.1182C169.973 61.1182 169.918 61.104 169.868 61.0747C169.732 60.9932 169.693 60.8241 169.78 60.6971C169.795 60.6763 170.147 60.1768 170.883 59.8706C171.031 59.8089 171.205 59.8706 171.271 60.0083C171.338 60.146 171.271 60.3074 171.123 60.3691C170.554 60.606 170.277 60.9891 170.275 60.9932C170.218 61.0741 170.124 61.1182 170.027 61.1182Z" fill="#FC7972"/>
<path d="M191.74 57.8863C191.74 57.8863 193.65 55.5187 195.07 57.4763C196.49 59.4339 194.482 65.2156 191.006 63.8046L191.74 57.8863Z" fill="#FB9E82"/>
<path d="M191.765 62.0183C191.893 62.0183 192.011 61.9393 192.048 61.8189C192.586 60.0339 194.576 59.3101 194.596 59.3031C194.747 59.2494 194.823 59.0915 194.766 58.9508C194.709 58.8101 194.539 58.7387 194.387 58.7924C194.294 58.8253 192.103 59.6158 191.481 61.6716C191.438 61.8169 191.529 61.9677 191.685 62.0082C191.712 62.0148 191.739 62.0183 191.765 62.0183Z" fill="#FC7972"/>
<path d="M193.774 61.1182C193.828 61.1182 193.884 61.104 193.933 61.0747C194.069 60.9932 194.109 60.8241 194.021 60.6971C194.006 60.6763 193.655 60.1768 192.918 59.8706C192.771 59.8089 192.596 59.8706 192.53 60.0083C192.464 60.146 192.53 60.3074 192.678 60.3691C193.247 60.606 193.524 60.9891 193.527 60.9932C193.583 61.0741 193.678 61.1182 193.774 61.1182Z" fill="#FC7972"/>
<path d="M186.6 68.7091V74.4589C186.6 74.4589 184.756 77.3872 182.261 77.5866C179.77 77.7886 177.555 75.0652 177.555 75.0652V69.1135L186.6 68.7091Z" fill="#FDBEAB"/>
<path d="M186.6 68.7091V71.2604C184.927 72.9872 181.954 73.4184 177.555 72.8146V69.1135L186.6 68.7091Z" fill="#FB9E82"/>
<path d="M170.929 55.4063C170.931 55.5105 170.934 55.6173 170.936 55.7266C170.944 56.006 170.953 56.2899 170.968 56.583C170.975 56.7307 170.982 56.8785 170.992 57.0258C171.002 57.1756 171.009 57.3254 171.021 57.4778C171.021 57.4843 171.021 57.5026 171.024 57.5279C171.034 57.662 171.046 57.7961 171.056 57.9348C171.149 59.0593 171.295 60.2385 171.522 61.4127C171.527 61.4375 171.532 61.4648 171.537 61.4901C171.573 61.6809 171.615 61.8717 171.657 62.0625C172.541 66.0992 174.416 69.9592 178.259 71.2336C187.374 74.2596 190.629 66.9945 191.931 62.7579C192.049 62.3738 192.159 61.9512 192.254 61.5063C192.276 61.4087 192.298 61.3084 192.317 61.2067C192.322 61.1819 192.327 61.1566 192.332 61.1293C192.777 58.9282 193.004 56.2039 193.119 54.0074C193.119 53.9846 193.121 53.9644 193.121 53.9436C193.253 51.3676 191.591 48.998 188.999 48.0734C185.26 46.7378 179.583 45.679 174.205 48.5142C172.219 49.5613 170.972 51.5017 170.928 53.6233C170.919 54.1658 170.917 54.7655 170.929 55.4063Z" fill="#FDBEAB"/>
<path d="M171.523 61.4129C171.528 61.4377 171.533 61.465 171.537 61.4903C172.368 65.7294 174.235 69.8977 178.26 71.2338C187.375 74.2598 190.63 66.9947 191.932 62.7581C192.076 62.2879 192.206 61.7631 192.318 61.2064C192.323 61.1816 192.328 61.1563 192.332 61.129L191.353 61.0652C191.353 61.0652 190.583 62.5465 189.449 64.1772C188.315 61.8603 182.841 63.5456 182.841 63.5456C182.497 63.6478 182.14 63.7 181.781 63.7C181.434 63.7 181.087 63.6499 180.75 63.5522L180.723 63.5456C180.723 63.5456 175.186 61.9306 174.093 64.3609C173.424 63.4089 172.879 62.339 172.632 61.2033L171.523 61.4129ZM181.796 64.6454C188.076 63.6412 187.015 66.5696 186.91 67.1829V67.185C186.908 67.185 186.908 67.185 186.908 67.185C186.483 67.562 186.048 67.8804 185.62 68.0934C183.189 69.3157 182.925 69.1314 181.964 69.1704C180.989 69.2134 179.643 68.9457 178.277 68.2367C177.85 68.014 177.214 67.5848 176.518 66.9942C176.518 66.9942 175.533 63.8594 181.796 64.6454Z" fill="#01305A"/>
<path d="M177.992 58.6363C177.992 59.2502 177.652 59.7477 177.232 59.7477C176.812 59.7477 176.472 59.2502 176.472 58.6363C176.472 58.0224 176.812 57.5249 177.232 57.5249C177.652 57.5249 177.992 58.0229 177.992 58.6363Z" fill="#01305A"/>
<path d="M186.948 58.6126C186.948 59.2265 186.608 59.724 186.188 59.724C185.769 59.724 185.428 59.2265 185.428 58.6126C185.428 57.9987 185.769 57.5012 186.188 57.5012C186.609 57.5012 186.948 57.9992 186.948 58.6126Z" fill="#01305A"/>
<path d="M188.667 54.7947C188.667 54.7947 186.269 53.9136 184.423 54.655L184.608 55.6095C184.608 55.6095 187.318 55.3964 188.683 55.9111C188.806 55.5437 188.824 55.1722 188.667 54.7947Z" fill="#01305A"/>
<path d="M174.696 54.7947C174.696 54.7947 177.094 53.9136 178.94 54.655L178.755 55.6095C178.755 55.6095 176.045 55.3964 174.68 55.9111C174.558 55.5437 174.54 55.1722 174.696 54.7947Z" fill="#01305A"/>
<path d="M182.264 63.2941C182.759 63.2941 183.251 63.1149 183.328 63.0861C183.478 63.0289 183.55 62.87 183.488 62.7303C183.427 62.5906 183.255 62.5238 183.105 62.5805C182.84 62.6807 182.203 62.8376 181.927 62.6842C181.874 62.6544 181.801 62.5957 181.783 62.4297C181.676 61.4756 181.957 58.2786 181.96 58.2462C181.973 58.0959 181.853 57.9638 181.691 57.9517C181.529 57.939 181.388 58.0514 181.374 58.2017C181.362 58.3353 181.086 61.4822 181.198 62.4858C181.24 62.8639 181.453 63.0572 181.625 63.1529C181.813 63.2571 182.039 63.2941 182.264 63.2941Z" fill="#FB9E82"/>
<path d="M178.057 65.3806C178.545 66.9566 179.934 68.5291 181.846 68.5503C183.757 68.5291 185.145 66.9561 185.634 65.3806H178.057Z" fill="white"/>
<path d="M170.929 55.4063C170.932 55.5105 170.934 55.6173 170.936 55.7266C170.944 56.006 170.956 56.2925 170.968 56.583C170.975 56.7307 170.983 56.8785 170.992 57.0258C171.002 57.1756 171.009 57.3254 171.022 57.4777C171.022 57.4843 171.022 57.5025 171.025 57.5279C171.034 57.662 171.046 57.7961 171.056 57.9348C171.149 59.0593 171.296 60.2385 171.523 61.4127C171.528 61.4375 171.533 61.4648 171.537 61.4901C171.574 61.6809 171.616 61.8717 171.657 62.0625L172.669 61.3606C172.605 60.7517 172.085 56.7626 172.166 56.3856C172.451 55.0657 174.152 53.6552 173.759 52.3828C173.368 51.1059 172.784 49.4616 173.849 49.2344C174.913 49.0051 179.296 48.9687 182.026 49.0501C184.736 49.1321 188.633 48.6432 190.2 49.784C191.766 50.9197 187.27 53.1981 190.74 54.1891C191.837 54.5024 191.458 59.823 191.311 61.0655L192.255 61.5063C192.277 61.4086 192.299 61.3084 192.318 61.2067C192.323 61.1819 192.328 61.1566 192.333 61.1293C192.778 58.9282 193.005 56.2039 193.12 54.0074C193.12 53.9846 193.122 53.9644 193.122 53.9436C193.254 51.3676 191.592 48.998 189 48.0734C185.261 46.7378 179.584 45.679 174.206 48.5142C172.22 49.5613 170.973 51.5017 170.929 53.6233C170.92 54.1658 170.917 54.7655 170.929 55.4063Z" fill="#01305A"/>
<path d="M186.782 74.5793C187.549 75.0814 188.537 75.6694 189.961 76.3851C190.687 76.751 191.474 77.1392 192.295 77.5435C193.564 78.1635 194.912 78.8225 196.249 79.4951L196.251 79.4971C198.233 80.4921 200.183 81.521 201.803 82.5003C203.42 83.4842 204.706 84.4225 205.342 85.2353C206.258 86.412 206.852 94.0268 207.233 104.05C207.248 104.399 207.26 104.756 207.274 105.115C207.276 105.158 207.276 105.199 207.276 105.245C207.291 105.61 207.303 105.983 207.316 106.358C207.352 107.485 207.389 108.636 207.423 109.809C207.433 110.056 207.438 110.304 207.443 110.554C207.45 110.74 207.455 110.926 207.457 111.112C207.496 112.548 207.531 114.011 207.562 115.49C207.584 116.503 207.606 117.523 207.623 118.548C207.958 136.417 207.878 155.798 207.799 161.068C203.645 162.044 199.488 162.78 195.334 163.278H195.332C194.249 163.408 193.164 163.521 192.084 163.619C191.723 163.651 191.361 163.68 191.002 163.707C189.054 163.862 187.106 163.967 185.159 164.019C181.941 164.103 178.723 164.042 175.502 163.839C173.291 163.7 171.076 163.494 168.865 163.219C164.853 162.722 160.84 162.003 156.825 161.068C156.752 154.782 156.911 127.912 157.72 107.814C157.734 107.492 157.747 107.173 157.759 106.855C158.243 95.2789 158.946 86.1488 159.955 84.8608C161.172 83.3116 164.471 81.3985 167.961 79.5745C169.381 78.8316 170.832 78.1048 172.189 77.4231C174.427 76.2985 176.409 75.2924 177.553 74.5474C177.553 74.5474 179.769 77.789 182.262 77.5871C184.532 77.4054 186.3 74.9047 186.6 74.4594L186.782 74.5793Z" fill="#FD7C78"/>
<path d="M195.554 148.545H195.552C187.183 148.511 180.038 144.97 175.519 142.006C170.631 138.799 167.669 135.551 167.64 135.519C167.497 135.361 167.518 135.125 167.689 134.992C167.859 134.858 168.113 134.879 168.256 135.037C168.285 135.068 171.193 138.255 176.002 141.406C180.423 144.303 187.404 147.763 195.556 147.796C195.779 147.797 195.958 147.965 195.957 148.172C195.956 148.378 195.776 148.545 195.554 148.545Z" fill="#D64E5A"/>
<path d="M186.831 151.188C179.568 151.188 172.326 147.341 171.996 147.163C171.804 147.06 171.738 146.831 171.849 146.652C171.96 146.473 172.207 146.412 172.399 146.515C172.484 146.561 181.007 151.085 188.563 150.358C188.787 150.335 188.982 150.487 189.005 150.692C189.028 150.898 188.867 151.082 188.646 151.103C188.044 151.162 187.437 151.188 186.831 151.188Z" fill="#D64E5A"/>
<path d="M175.881 87.3648C175.691 87.3648 175.522 87.2398 175.486 87.0602C175.445 86.8572 175.588 86.6609 175.807 86.6224C186.011 84.8222 189.087 78.7196 189.117 78.6579C189.208 78.4696 189.447 78.3856 189.65 78.4711C189.852 78.5561 189.942 78.7778 189.85 78.9666C189.721 79.2318 186.569 85.4862 175.957 87.3583C175.931 87.3628 175.906 87.3648 175.881 87.3648Z" fill="#D64E5A"/>
<path d="M196.28 106.738H195.793C193.149 106.738 191.005 104.746 191.005 102.288V96.5708H201.068V102.288C201.068 104.746 198.924 106.738 196.28 106.738Z" fill="#D64E5A"/>
<path d="M143.776 166.346C143.772 166.325 143.77 166.306 143.766 166.286C142.99 162.033 145.194 158.182 146.145 158.305C147.097 158.43 145.357 162.95 146.204 164.578C147.048 166.207 148.14 163.042 149.228 161.123C150.356 159.13 150.29 154.78 149.777 151.676C149.264 148.571 155.317 129.714 155.347 124.25L156.085 121.933L158.785 113.451L163.012 100.169C163.012 100.169 160.48 90.115 156.21 90.9789C156.21 90.9789 153.95 97.9819 151.534 105.879C151.125 107.22 150.711 108.587 150.302 109.95C148.58 115.676 146.963 121.329 146.212 124.683C144.226 133.539 144.072 151.947 144.072 151.947C144.072 151.947 140.568 158.71 140.485 161.719C140.439 163.44 140.938 164.972 141.379 166.346H143.776V166.346Z" fill="#FDBEAB"/>
<path d="M150.302 109.949L156.085 121.932L158.785 113.451L151.534 105.879C151.125 107.22 150.711 108.587 150.302 109.949Z" fill="#FB9E82"/>
<path d="M150.016 106.38C152.553 110.424 155.132 114.446 157.702 118.475C158.549 115.84 159.426 113.31 160.248 110.985C160.251 110.978 160.253 110.974 160.256 110.967C160.584 110.037 160.906 109.14 161.213 108.283C161.218 108.267 161.223 108.252 161.23 108.239C161.336 107.938 161.44 107.641 161.547 107.351V107.349C162.774 103.9 163.724 101.159 163.996 99.5614C164.729 95.2601 163.013 87.628 160.468 85.4584L160.178 85.2534C160.014 85.1623 159.951 85.0257 159.766 85.2023C158.898 86.0313 156.801 88.8245 155.716 91.3788C155.576 91.7042 155.435 92.0428 155.288 92.3874C153.716 96.1432 151.794 101.03 150.016 106.38Z" fill="#FD7C78"/>
<path d="M157.314 120.852C158.151 117.636 159.203 114.063 160.246 110.983C160.248 110.977 160.25 110.972 160.253 110.965C160.574 110.014 160.896 109.111 161.21 108.282C161.215 108.266 161.22 108.251 161.227 108.238C161.323 107.976 161.423 107.723 161.519 107.477C161.534 107.433 161.543 107.391 161.543 107.349V107.347C161.543 107.2 161.444 107.062 161.285 107.007C161.08 106.938 160.853 107.035 160.779 107.226C159.71 109.935 158.448 113.834 157.365 117.658C157.347 118.718 157.33 119.784 157.314 120.852Z" fill="#D64E5A"/>
<path d="M204.016 107.349V107.351C204.016 107.392 204.026 107.433 204.041 107.478C204.139 107.724 204.236 107.976 204.333 108.237C204.341 108.251 204.346 108.266 204.351 108.282C204.666 109.111 204.986 110.013 205.309 110.965C205.311 110.972 205.313 110.977 205.316 110.983C206.112 113.341 206.918 115.992 207.625 118.548C207.608 117.524 207.586 116.504 207.564 115.49C206.643 112.403 205.646 109.423 204.781 107.226C204.708 107.035 204.48 106.94 204.275 107.008C204.116 107.063 204.016 107.201 204.016 107.349Z" fill="#D64E5A"/>
<path d="M223.081 115.74C220.844 111.301 205.489 85.4816 205.489 85.4816C202.592 87.0844 207.494 112.483 207.494 112.483L213.586 126.94C214.982 130.354 219.331 131.791 222.735 129.968C222.792 129.937 222.851 129.905 222.91 129.873C228.783 126.63 223.081 115.74 223.081 115.74Z" fill="#FDBEAB"/>
<path d="M205.488 85.4816L219.676 104.34C219.676 104.34 214.036 115.771 207.56 115.337C207.56 115.337 199.577 89.3487 205.488 85.4816Z" fill="#FD7C78"/>
<path d="M223.437 103.892L223.259 105.798L222.955 109.013L222.896 109.629L222.642 112.364L222.359 115.338L222.347 115.478L222.027 118.886L221.745 121.923L221.392 125.691H210.126L210.044 124.829L209.703 121.164L209.494 118.954L209.156 115.338L209.15 115.278L208.941 113.075L208.622 109.629L208.598 109.381L208.392 107.189L208.082 103.892H223.437Z" fill="#01305A"/>
<path d="M222.896 109.629L222.641 112.364L222.359 115.338H209.156L209.15 115.278L208.941 113.075L208.622 109.629H222.896Z" fill="white"/>
<path d="M224.226 101.105H207.294V103.892H224.226V101.105Z" fill="#015288"/>
<path d="M222.949 101.104H208.569V99.4851C208.569 99.0721 208.929 98.7371 209.373 98.7371H222.144C222.588 98.7371 222.949 99.0721 222.949 99.4851V101.104Z" fill="#01305A"/>
<path d="M223.823 105.887C223.823 105.887 221.688 106.02 218.629 106.685C217.075 107.022 213.7 108.915 215.14 109.61C216.278 110.16 221.389 108.831 222.4 109.262C222.4 109.262 219.983 109.723 217.924 110.018C216.062 110.285 213.186 111.294 214.306 111.846C215.363 112.368 218.015 112.155 218.96 112.178C220.214 112.208 221.801 112.188 221.801 112.188C221.801 112.188 219.8 112.498 217.441 113.16C216.362 113.463 213.247 113.755 214.237 115.063C214.733 115.719 218.938 115.245 221.05 115.421C221.05 115.421 217.16 116.033 216.032 117.017C215.14 117.794 216.355 117.899 217.925 118.004C219.95 118.138 220.571 118.004 221.801 118.004C223.031 118.004 225.099 117.194 225.143 116.021C225.187 114.848 224.483 114.357 224.703 113.62C224.923 112.883 225.434 111.757 225.145 111.11C224.855 110.464 224.942 109.921 225.231 109.078C225.516 108.252 225.011 106.228 223.823 105.887Z" fill="#FDBEAB"/>
<path d="M183.16 59.0443C183.16 57.1667 184.803 55.6393 186.823 55.6393C188.842 55.6393 190.485 57.1667 190.485 59.0443C190.485 60.922 188.842 62.4494 186.823 62.4494C184.803 62.4494 183.16 60.922 183.16 59.0443ZM183.731 59.0443C183.731 60.6295 185.118 61.919 186.823 61.919C188.528 61.919 189.914 60.6295 189.914 59.0443C189.914 57.4592 188.527 56.1702 186.823 56.1702C185.118 56.1697 183.731 57.4592 183.731 59.0443Z" fill="white"/>
<path d="M173.148 59.0443C173.148 57.1667 174.791 55.6393 176.811 55.6393C178.83 55.6393 180.473 57.1667 180.473 59.0443C180.473 60.922 178.83 62.4494 176.811 62.4494C174.791 62.4494 173.148 60.922 173.148 59.0443ZM173.719 59.0443C173.719 60.6295 175.106 61.919 176.811 61.919C178.516 61.919 179.902 60.6295 179.902 59.0443C179.902 57.4592 178.515 56.1702 176.811 56.1702C175.106 56.1697 173.719 57.4592 173.719 59.0443Z" fill="white"/>
<path d="M193.374 56.471C193.374 56.3248 193.247 56.2043 193.09 56.2033C191.103 56.1866 189.729 57.4336 189.663 57.4944C189.551 57.5976 189.551 57.7656 189.662 57.8699C189.717 57.922 189.791 57.9478 189.864 57.9478C189.937 57.9478 190.01 57.922 190.065 57.8709C190.079 57.8577 191.33 56.7307 193.083 56.7372C193.243 56.7377 193.374 56.6198 193.374 56.471Z" fill="white"/>
<path d="M173.854 57.4607C173.772 57.4106 172.281 56.5163 170.607 56.2228C170.431 56.1919 170.267 56.3184 170.267 56.485C170.267 56.6115 170.363 56.7213 170.496 56.7451C172.067 57.0219 173.523 57.8934 173.542 57.9051C173.59 57.9344 173.644 57.9481 173.698 57.9481C173.791 57.9481 173.882 57.9056 173.937 57.8276C174.024 57.7057 173.987 57.5412 173.854 57.4607Z" fill="white"/>
<path d="M180.272 58.2789C180.278 58.2708 180.957 57.418 181.848 57.418C182.731 57.418 183.344 58.2692 183.35 58.2778L183.828 57.9873C183.797 57.9423 183.043 56.8871 181.848 56.8871C180.662 56.8871 179.843 57.9241 179.809 57.9686L180.272 58.2789Z" fill="white"/>
<path d="M85.9036 95.6127L93.1539 120.121L93.2965 120.568C93.2965 120.679 93.3009 120.794 93.3053 120.916C93.5693 126.857 99.4445 145.259 98.9355 148.338C98.4161 151.482 98.3502 155.885 99.4908 157.904C100.592 159.847 101.698 163.051 102.554 161.402C103.41 159.752 101.649 155.177 102.612 155.052C103.576 154.925 105.807 158.826 105.019 163.132C104.234 167.438 107.018 168.592 106.807 166.467C106.598 164.339 108.433 161.755 108.344 158.508C108.259 155.46 104.712 148.613 104.712 148.613C104.712 148.613 104.557 129.974 102.548 121.007C100.536 112.041 92.5469 83.8798 92.5469 83.8798C88.0333 88.3279 85.9036 95.6127 85.9036 95.6127Z" fill="#FDBEAB"/>
<path d="M93.1599 120.134L93.2982 120.567C93.2982 120.674 93.302 120.785 93.3064 120.904C94.7082 120.456 96.0545 120.077 97.0469 119.903C97.2691 119.865 97.4199 119.664 97.3763 119.455C97.3349 119.243 97.1188 119.105 96.8945 119.149C95.8857 119.327 94.5498 119.694 93.1599 120.134Z" fill="#FB9E82"/>
<path d="M95.2674 166.244C94.9887 164.577 94.7165 162.902 94.4525 161.242C94.2772 160.13 94.1062 159.028 93.9369 157.94C93.2967 153.777 92.7245 149.84 92.2656 146.574C92.0903 145.333 91.9335 144.187 91.7903 143.165C91.3456 139.904 91.0837 137.879 91.0837 137.879L71.3807 138.571L51.6173 137.879C51.6173 137.879 51.1077 141.887 50.2922 147.697C50.143 148.755 49.9841 149.871 49.8169 151.035C49.3781 154.084 48.8767 157.452 48.3372 160.9C48.3291 160.951 48.3209 161.001 48.3127 161.052C48.1434 162.126 47.9725 163.208 47.795 164.29C47.7928 164.305 47.7912 164.318 47.7869 164.334V164.336C47.684 164.973 47.5794 165.609 47.4744 166.245H95.2674V166.244Z" fill="#01305A"/>
<path d="M56.1592 143.381C56.1592 144.334 55.3279 145.107 54.3023 145.107C53.2766 145.107 52.4453 144.334 52.4453 143.381C52.4453 142.427 53.2766 141.654 54.3023 141.654C55.3279 141.654 56.1592 142.427 56.1592 143.381Z" fill="#001336"/>
<path d="M60.7683 150.068C60.7683 151.022 59.937 151.795 58.9114 151.795C57.8857 151.795 57.0544 151.022 57.0544 150.068C57.0544 149.115 57.8857 148.342 58.9114 148.342C59.9365 148.342 60.7683 149.115 60.7683 150.068Z" fill="#001336"/>
<path d="M69.8333 146.615C69.8333 147.569 69.002 148.342 67.9763 148.342C66.9507 148.342 66.1194 147.569 66.1194 146.615C66.1194 145.662 66.9507 144.889 67.9763 144.889C69.002 144.889 69.8333 145.662 69.8333 146.615Z" fill="#001336"/>
<path d="M55.5249 157.172C55.5249 158.125 54.6936 158.898 53.668 158.898C52.6423 158.898 51.811 158.125 51.811 157.172C51.811 156.218 52.6423 155.446 53.668 155.446C54.6931 155.446 55.5249 156.218 55.5249 157.172Z" fill="#001336"/>
<path d="M66.8518 156.434C66.8518 157.387 66.0205 158.16 64.9949 158.16C63.9692 158.16 63.1379 157.387 63.1379 156.434C63.1379 155.48 63.9692 154.708 64.9949 154.708C66.0205 154.707 66.8518 155.48 66.8518 156.434Z" fill="#001336"/>
<path d="M51.4999 149.317C51.4999 150.215 50.7628 150.955 49.8167 151.036C49.9838 149.871 50.1427 148.756 50.2919 147.698C50.9985 147.943 51.4999 148.574 51.4999 149.317Z" fill="#001336"/>
<path d="M85.2809 166.244C85.1144 165.449 84.3625 164.85 83.4588 164.85C82.5551 164.85 81.8033 165.449 81.6367 166.244H85.2809Z" fill="#001336"/>
<path d="M82.5818 158.898C83.6074 158.898 84.4388 158.125 84.4388 157.172C84.4388 156.218 83.6074 155.446 82.5818 155.446C81.5562 155.446 80.7249 156.218 80.7249 157.172C80.7249 158.125 81.5562 158.898 82.5818 158.898Z" fill="#001336"/>
<path d="M94.4516 161.243C94.2278 161.331 93.9807 161.379 93.7226 161.379C92.6975 161.379 91.8662 160.606 91.8662 159.654C91.8662 158.701 92.6981 157.928 93.7226 157.928C93.795 157.928 93.8653 157.931 93.936 157.941C94.1053 159.029 94.2763 160.131 94.4516 161.243Z" fill="#001336"/>
<path d="M49.403 162.625C49.403 163.501 48.7002 164.225 47.7883 164.334C47.7921 164.319 47.7943 164.306 47.7965 164.291C47.974 163.209 48.1449 162.127 48.3142 161.052C48.9561 161.326 49.403 161.926 49.403 162.625Z" fill="#001336"/>
<path d="M61.7183 164.356C61.7183 165.31 60.887 166.083 59.8614 166.083C58.8357 166.083 58.0044 165.31 58.0044 164.356C58.0044 163.403 58.8357 162.63 59.8614 162.63C60.887 162.63 61.7183 163.403 61.7183 164.356Z" fill="#001336"/>
<path d="M71.6897 162.631C71.6897 163.585 70.8584 164.358 69.8328 164.358C68.8071 164.358 67.9758 163.585 67.9758 162.631C67.9758 161.678 68.8071 160.905 69.8328 160.905C70.8584 160.905 71.6897 161.678 71.6897 162.631Z" fill="#001336"/>
<path d="M76.1792 153.522C76.1792 154.475 75.3479 155.248 74.3223 155.248C73.2966 155.248 72.4653 154.475 72.4653 153.522C72.4653 152.568 73.2966 151.796 74.3223 151.796C75.3474 151.796 76.1792 152.568 76.1792 153.522Z" fill="#001336"/>
<path d="M92.2652 146.574C92.1361 146.602 92.0033 146.615 91.8667 146.615C90.8399 146.615 90.0103 145.842 90.0103 144.889C90.0103 143.961 90.7996 143.201 91.7905 143.166C91.9331 144.187 92.0904 145.333 92.2652 146.574Z" fill="#001336"/>
<path d="M82.5799 146.615C82.5799 147.569 81.7486 148.342 80.7229 148.342C79.6973 148.342 78.866 147.569 78.866 146.615C78.866 145.662 79.6973 144.889 80.7229 144.889C81.748 144.889 82.5799 145.662 82.5799 146.615Z" fill="#001336"/>
<path d="M89.3833 152.768C89.3833 153.722 88.552 154.495 87.5264 154.495C86.5007 154.495 85.6694 153.722 85.6694 152.768C85.6694 151.815 86.5007 151.042 87.5264 151.042C88.552 151.042 89.3833 151.815 89.3833 152.768Z" fill="#001336"/>
<path d="M91.9618 138.333C81.5675 144.642 62.483 144.147 50.4903 138.333C51.6358 131.699 53.1443 125.058 52.8198 116.228C52.7834 115.26 52.7393 114.298 52.687 113.345C52.6407 112.516 52.5885 111.692 52.5318 110.878C51.4969 96.1886 48.8005 84.1783 50.1256 82.6266C50.7037 81.9469 51.6679 81.2135 52.8579 80.4625C53.325 80.1669 53.8243 79.8673 54.3518 79.5677C55.5963 78.8622 56.9796 78.1506 58.3689 77.4582C61.6653 75.822 65.0117 74.3042 66.689 73.2672C68.3522 73.9408 69.6772 74.3098 71.1047 74.3022C71.1428 74.3022 71.1852 74.3022 71.2277 74.2986C71.2658 74.3022 71.3083 74.3022 71.3464 74.3022C72.7738 74.3098 74.0989 73.9408 75.7642 73.2672C77.3206 74.2293 80.2506 75.5715 83.2405 77.0351C85.4371 78.1116 87.6665 79.2534 89.402 80.3617C90.5376 81.0865 91.4658 81.7976 92.0337 82.4641C92.6902 83.2334 92.4142 86.6065 91.8524 91.6048C91.2965 96.5221 90.4652 103.016 89.9617 110.154C89.8228 112.136 89.708 114.167 89.6312 116.228C89.3095 125.058 90.8158 131.699 91.9618 138.333Z" fill="#FD7C78"/>
<path d="M84.6668 131.419H84.6651C76.2955 131.386 69.1508 127.844 64.6317 124.88C59.744 121.674 56.7819 118.426 56.7525 118.393C56.6094 118.236 56.6311 117.999 56.8015 117.866C56.9719 117.733 57.2262 117.753 57.3688 117.911C57.3977 117.943 60.3059 121.129 65.1146 124.28C69.5356 127.177 76.5171 130.638 84.6689 130.67C84.8916 130.671 85.0707 130.84 85.0696 131.046C85.0685 131.253 84.8883 131.419 84.6668 131.419Z" fill="#D64E5A"/>
<path d="M75.945 134.063C68.6821 134.063 61.4394 130.215 61.11 130.038C60.9173 129.935 60.852 129.706 60.963 129.527C61.0741 129.348 61.3207 129.287 61.5129 129.39C61.5983 129.436 70.1204 133.96 77.6767 133.233C77.901 133.21 78.0959 133.361 78.1188 133.567C78.1416 133.773 77.981 133.957 77.7595 133.978C77.1573 134.037 76.5509 134.063 75.945 134.063Z" fill="#D64E5A"/>
<path d="M69.5139 92.1886C69.3239 92.1886 69.1552 92.0636 69.1187 91.8839C69.0773 91.681 69.2205 91.4851 69.4393 91.4461C79.6442 89.6459 82.7195 83.5433 82.7494 83.4816C82.8409 83.2933 83.0793 83.2093 83.2824 83.2948C83.4849 83.3799 83.5747 83.6015 83.4833 83.7903C83.3543 84.0555 80.2016 90.3099 69.5896 92.182C69.564 92.1866 69.5384 92.1886 69.5139 92.1886Z" fill="#D64E5A"/>
<path d="M83.2411 77.0358C81.2154 81.3305 76.4573 87.1563 69.9822 86.1162C63.7118 85.1086 60.5167 80.6473 58.3701 77.4584C61.667 75.8216 65.0135 74.3053 66.6902 73.2678C68.3539 73.9409 69.679 74.3094 71.1053 74.3033C71.144 74.3033 71.187 74.3033 71.2283 74.2993C71.267 74.3033 71.31 74.3033 71.3487 74.3033C72.775 74.3094 74.1006 73.9409 75.7659 73.2678C77.3218 74.2289 80.2523 75.5711 83.2411 77.0358Z" fill="#FDBEAB"/>
<path d="M71.336 74.4525V74.4596C71.3008 74.4596 71.2632 74.4596 71.228 74.4557C71.2632 74.4557 71.3013 74.4525 71.336 74.4525Z" fill="#01305A"/>
<path d="M81.7031 43.4036C81.7031 43.4036 86.6021 50.4581 86.0654 57.8067C85.5286 65.1553 86.7872 73.6381 79.7144 73.2651C72.6415 72.8921 60.0255 75.9014 56.0155 70.1779C52.0054 64.4549 81.7031 43.4036 81.7031 43.4036Z" fill="#01305A"/>
<path d="M60.9354 56.3268C60.9354 56.3268 58.9832 53.9071 57.5318 55.9082C56.0799 57.9093 58.1323 63.8191 61.6867 62.3767L60.9354 56.3268Z" fill="#FB9E82"/>
<path d="M60.9098 60.5504C60.7786 60.5504 60.6582 60.4699 60.6207 60.3464C60.0697 58.5219 58.0364 57.782 58.0163 57.7749C57.8616 57.7203 57.7833 57.5588 57.8426 57.4151C57.9014 57.2714 58.0745 57.1985 58.2291 57.2526C58.3244 57.286 60.5651 58.0943 61.1994 60.1956C61.244 60.3439 61.1509 60.4983 60.9914 60.5398C60.9636 60.5469 60.9364 60.5504 60.9098 60.5504Z" fill="#FC7972"/>
<path d="M58.8566 59.6311C58.801 59.6311 58.7444 59.6169 58.6943 59.5866C58.555 59.5031 58.5147 59.33 58.6045 59.2004C58.6198 59.1787 58.9791 58.669 59.732 58.3557C59.8828 58.2925 60.0608 58.3557 60.1288 58.4964C60.1963 58.6371 60.1288 58.8021 59.9775 58.8654C59.3955 59.1078 59.113 59.499 59.1103 59.5031C59.0515 59.5856 58.9551 59.6311 58.8566 59.6311Z" fill="#FC7972"/>
<path d="M81.0535 56.3268C81.0535 56.3268 83.0057 53.9071 84.4571 55.9082C85.9085 57.9093 83.8566 63.8191 80.3022 62.3767L81.0535 56.3268Z" fill="#FB9E82"/>
<path d="M81.0774 60.5504C81.2086 60.5504 81.3294 60.4699 81.3664 60.3464C81.9174 58.5219 83.9507 57.782 83.9708 57.7749C84.1255 57.7203 84.2033 57.5588 84.1451 57.4151C84.0863 57.2714 83.9131 57.1985 83.7585 57.2526C83.6638 57.286 81.4225 58.0943 80.7883 60.1956C80.7436 60.3439 80.8367 60.4983 80.9962 60.5398C81.0235 60.5469 81.0507 60.5504 81.0774 60.5504Z" fill="#FC7972"/>
<path d="M83.1322 59.6311C83.1877 59.6311 83.2443 59.6169 83.2944 59.5866C83.4338 59.5031 83.4741 59.33 83.3842 59.2004C83.3695 59.1787 83.0097 58.669 82.2568 58.3557C82.106 58.2925 81.928 58.3557 81.8599 58.4964C81.7924 58.6371 81.8599 58.8021 82.0113 58.8654C82.5932 59.1078 82.8763 59.499 82.8785 59.5031C82.9367 59.5856 83.0336 59.6311 83.1322 59.6311Z" fill="#FC7972"/>
<path d="M75.7989 67.3893V73.2666C75.7989 73.2666 73.9136 76.2597 71.3636 76.4637C68.8164 76.6702 66.5527 73.8866 66.5527 73.8866V67.8028L75.7989 67.3893Z" fill="#FDBEAB"/>
<path d="M75.7989 67.3893V69.9972C74.0878 71.762 71.05 72.3875 66.5538 71.7706L66.5527 67.8028L75.7989 67.3893Z" fill="#FB9E82"/>
<path d="M82.4655 52.295C82.3484 54.5791 82.1143 57.4355 81.6456 59.7191C81.5285 60.2884 81.3962 60.8244 81.2493 61.3047C79.9187 65.6354 76.5908 73.0625 67.2745 69.9686C63.1599 68.6032 61.2528 64.3428 60.4025 60.0096C59.826 57.0666 59.7388 54.0932 59.7808 51.9681C59.826 49.7984 61.0993 47.816 63.1294 46.7471C68.6284 43.8487 74.4312 44.9292 78.2512 46.2947C80.9036 47.2411 82.6005 49.6623 82.4655 52.295Z" fill="#FDBEAB"/>
<path d="M66.8894 56.6728C66.8894 57.3004 66.5415 57.8085 66.1126 57.8085C65.6836 57.8085 65.3357 57.2999 65.3357 56.6728C65.3357 56.0453 65.6836 55.5366 66.1126 55.5366C66.5421 55.5366 66.8894 56.0453 66.8894 56.6728Z" fill="#01305A"/>
<path d="M76.4844 56.6728C76.4844 57.3004 76.1365 57.8085 75.7075 57.8085C75.2785 57.8085 74.9307 57.2999 74.9307 56.6728C74.9307 56.0453 75.2785 55.5366 75.7075 55.5366C76.1365 55.5366 76.4844 56.0453 76.4844 56.6728Z" fill="#01305A"/>
<path d="M64.5769 53.2899C65.2226 53.1203 66.5254 52.8308 67.9005 52.8273C68.262 52.8263 68.5391 53.1254 68.4754 53.4564L68.4738 53.4645C68.4226 53.7286 68.1684 53.9159 67.8798 53.9032C66.9446 53.8628 64.4888 53.9847 63.3297 54.422C63.3058 54.2347 63.425 54.0293 63.5938 53.8471C63.8491 53.5712 64.1997 53.389 64.5769 53.2899Z" fill="#01305A"/>
<path d="M77.1286 53.3143C76.4829 53.1447 75.1801 52.8552 73.805 52.8517C73.4435 52.8507 73.1664 53.1498 73.2301 53.4808L73.2317 53.4889C73.2829 53.7531 73.5371 53.9403 73.8257 53.9277C74.761 53.8872 77.2167 54.0091 78.3763 54.4464C78.3997 54.2592 78.2805 54.0537 78.1117 53.8715C77.8564 53.5957 77.5053 53.4135 77.1286 53.3143Z" fill="#01305A"/>
<path d="M71.1 61.856C70.8702 61.856 70.6394 61.818 70.4467 61.7112C70.2709 61.6136 70.0531 61.4157 70.0101 61.0295C69.8958 60.0031 70.1783 56.7864 70.1903 56.6502C70.2039 56.4969 70.3487 56.382 70.5142 56.3946C70.6792 56.4073 70.8027 56.5424 70.7891 56.6958C70.7864 56.7287 70.499 59.9971 70.6078 60.9718C70.6269 61.1414 70.7009 61.2016 70.7554 61.232C71.0374 61.3888 71.6885 61.2284 71.9601 61.1262C72.1137 61.0675 72.289 61.1368 72.3516 61.279C72.4142 61.4217 72.3407 61.5847 72.1872 61.6429C72.1088 61.6728 71.6063 61.856 71.1 61.856Z" fill="#FB9E82"/>
<path d="M67.2842 63.6174C67.5112 64.6797 68.2657 66.6333 70.8081 66.6333C73.357 66.6333 74.0712 64.8478 74.3168 63.6174H67.2842Z" fill="white"/>
<path d="M70.7719 68.2642C70.0381 68.2642 69.3908 67.8968 69.363 67.8811C69.222 67.8001 69.1779 67.628 69.2656 67.4965C69.3527 67.3654 69.5372 67.3249 69.6782 67.4054C69.6837 67.4084 70.2117 67.7055 70.7714 67.7055C71.3773 67.7055 71.9195 67.4074 71.925 67.4043C72.0671 67.3254 72.2516 67.3679 72.3371 67.4995C72.4226 67.6311 72.3774 67.8027 72.2358 67.8821C72.2081 67.8978 71.5493 68.2642 70.7719 68.2642Z" fill="#FB9E82"/>
<path d="M83.6739 51.8406C83.577 52.0952 83.3097 52.2581 82.951 52.3553C82.9771 52.9712 82.9074 53.7117 82.8421 54.4217C82.4714 58.4574 81.3766 59.1659 81.1289 58.1679C80.9655 57.5054 80.9753 53.7046 81.0537 52.4651C80.1958 52.4125 79.463 52.2799 79.463 52.2799L78.4564 48.3616L78.1042 52.2308C76.594 52.7192 73.0701 51.9368 73.0701 51.9368L71.8882 48.0752L71.1576 51.791C68.8923 52.8169 66.0615 52.1336 66.0615 52.1336L65.4109 48.1258L63.9089 52.1336C63.9089 52.1336 59.0762 53.7451 59.024 52.1336C58.9918 51.1958 59.7306 48.5545 60.355 46.5083C61.0355 44.2769 62.6121 42.3922 64.7445 41.3288C70.7389 38.3378 77.0774 39.9285 79.2523 41.136C83.8634 43.6954 83.6739 51.8406 83.6739 51.8406Z" fill="#01305A"/>
<path d="M61.8258 43.702C61.8258 43.702 57.7085 48.1006 56.3998 55.9573C55.091 63.814 53.2787 69.6185 58.371 72.2128C63.8826 75.0207 64.9447 70.2395 64.8647 68.6741C64.7852 67.1093 58.5583 61.8539 61.687 49.8056C62.6969 45.9157 61.8258 43.702 61.8258 43.702Z" fill="#01305A"/>
<path d="M82.5367 62.5092C82.5367 62.8706 82.2215 63.1636 81.8328 63.1636C81.4441 63.1636 81.1289 62.8706 81.1289 62.5092C81.1289 62.1479 81.4441 61.8549 81.8328 61.8549C82.2215 61.8554 82.5367 62.1479 82.5367 62.5092Z" fill="white"/>
<path d="M52.5321 110.877C51.4972 96.1882 48.8008 84.1778 50.1258 82.6261C50.704 81.9464 51.6681 81.2131 52.8582 80.462C54.0706 85.7468 57.1312 101.651 52.5321 110.877Z" fill="#FDBEAB"/>
<path d="M91.8527 91.6041C91.2969 96.5214 90.4656 103.015 89.962 110.153C85.8866 100.949 88.1922 85.704 89.4024 80.3616C90.538 81.0863 91.4662 81.7974 92.034 82.4639C92.6906 83.2332 92.4146 86.6064 91.8527 91.6041Z" fill="#FDBEAB"/>
<path d="M54.7865 98.2714L50.2021 111.961L45.1822 124.975C44.3749 127.7 41.1395 129.102 38.3761 127.929C38.3276 127.909 38.2797 127.888 38.2313 127.868C33.4563 125.769 36.0891 117.063 36.0891 117.063L36.9906 116.998C37.3581 116.043 38.3494 113.611 39.6113 110.556C39.7638 110.181 39.9233 109.794 40.0855 109.404C40.3539 108.754 40.6321 108.084 40.9146 107.396C41.3186 106.425 41.7345 105.423 42.1548 104.413C45.2497 96.9509 47.8133 88.8528 47.8133 88.8528L49.9501 82.9557L54.7865 98.2714Z" fill="#FDBEAB"/>
<path d="M41.9102 119.852C41.8901 119.854 41.8727 119.854 41.8525 119.854C41.6691 119.855 41.5074 119.733 41.4785 119.56C40.7806 115.433 40.0778 112.385 39.6123 110.557C39.7653 110.183 39.9259 109.796 40.0865 109.405C40.5225 111.016 41.3762 114.448 42.2238 119.45C42.2554 119.642 42.116 119.82 41.9102 119.852Z" fill="#FB9E82"/>
<path d="M41.2261 120.053C41.2261 120.053 40.5685 110.136 38.2924 108.027C36.0162 105.918 33.9382 105.113 31.8031 105.185C29.6685 105.257 27.6602 105.503 27.7919 106.319C27.7919 106.319 22.8885 105.631 20.6989 106.812C18.5093 107.993 27.1838 109.028 29.7589 109.09C32.3344 109.152 33.6943 110.49 33.7989 111.917C33.9028 113.344 35.3891 122.795 35.3891 122.795L41.2261 120.053Z" fill="#FDBEAB"/>
<path d="M43.824 106.96L11.3216 107.162C10.0994 107.17 9.10148 106.255 9.09331 105.119V105.101C9.08515 103.965 10.0694 103.037 11.2916 103.029L43.7941 102.827C45.0162 102.819 46.0141 103.734 46.0223 104.871V104.888C46.0305 106.025 45.0462 106.952 43.824 106.96Z" fill="#001336"/>
<path d="M9.11499 107.176L1.99966 83.0522C1.60007 81.6974 2.6905 80.3582 4.20231 80.3491L19.4766 80.254C20.5071 80.2474 21.4163 80.879 21.7016 81.8001L29.5273 107.049L9.11499 107.176Z" fill="#01305A"/>
<path d="M21.7024 81.8006L29.4628 106.842L31.2082 106.831L23.4477 81.79C23.1603 80.8689 22.2528 80.2363 21.2217 80.2428L19.4763 80.2535C20.5069 80.2469 21.4149 80.8795 21.7024 81.8006Z" fill="#001336"/>
<path d="M17.8695 94.7763C18.2778 96.368 17.2189 97.6666 15.5041 97.6773C13.7892 97.6879 12.0684 96.4064 11.6601 94.8147C11.2518 93.223 12.3106 91.9244 14.0255 91.9138C15.7403 91.9031 17.4617 93.1851 17.8695 94.7763Z" fill="#3B73A9"/>
<path d="M231.465 169.902V170.253C231.465 172.274 229.702 173.913 227.527 173.913H23.2684C21.093 173.913 19.3313 172.274 19.3313 170.253V169.902C19.3313 167.881 21.093 166.242 23.2684 166.242H227.527C229.702 166.242 231.465 167.881 231.465 169.902Z" fill="#015288"/>
<path d="M231.465 169.902V170.077H19.3313V169.902C19.3313 167.881 21.093 166.242 23.2684 166.242H227.527C229.702 166.242 231.465 167.881 231.465 169.902Z" fill="#3B73A9"/>
</svg>
