<svg width="1440" height="1024" viewBox="0 0 1440 1024" fill="none" xmlns="http://www.w3.org/2000/svg">
<g opacity="0.3" clip-path="url(#clip0_38_80)">
<path d="M1157.76 456.411C1195.52 456.389 1195.52 456.389 1234.04 456.366C1242 456.359 1249.96 456.352 1258.16 456.346C1267.85 456.342 1267.85 456.342 1272.38 456.342C1275.55 456.341 1278.73 456.338 1281.91 456.334C1285.95 456.329 1290 456.328 1294.04 456.329C1295.53 456.329 1297.02 456.327 1298.51 456.324C1300.51 456.321 1302.52 456.321 1304.52 456.323C1305.11 456.321 1305.7 456.319 1306.31 456.317C1310.32 456.328 1310.32 456.328 1311.12 457.143C1311.19 459.392 1311.21 461.624 1311.2 463.873C1311.2 464.591 1311.2 465.309 1311.2 466.048C1311.2 468.384 1311.2 470.719 1311.19 473.054C1311.19 474.491 1311.19 475.929 1311.19 477.366C1311.18 482.709 1311.17 488.051 1311.17 493.394C1311.15 505.327 1311.14 517.26 1311.12 529.554C1349.85 529.554 1388.58 529.554 1428.48 529.554C1428.48 563.337 1428.48 563.337 1428.44 573.998C1428.45 577.156 1428.45 577.156 1428.47 580.314C1428.48 581.718 1428.47 583.123 1428.46 584.528C1428.44 586.659 1428.46 588.787 1428.48 590.918C1428.47 591.542 1428.45 592.166 1428.44 592.809C1428.51 596.111 1428.51 596.111 1430.35 598.697C1431.85 599.666 1433.36 600.446 1434.96 601.234C1437.45 602.683 1437.45 602.683 1440 604.16C1440 742.707 1440 881.254 1440 1024C964.8 1024 489.6 1024 0 1024C0 865.178 0 706.355 0 542.72C27.5616 542.72 55.1232 542.72 83.52 542.72C84.24 543.451 84.24 543.451 84.3266 545.205C84.325 545.983 84.3234 546.761 84.3217 547.563C84.3217 548.881 84.3216 548.881 84.3216 550.225C84.3178 551.182 84.3141 552.138 84.3103 553.123C84.309 554.106 84.308 555.089 84.3072 556.072C84.3045 558.663 84.2974 561.254 84.2894 563.845C84.282 566.488 84.2788 569.13 84.2752 571.773C84.2674 576.961 84.2551 582.149 84.24 587.337C85.0993 587.439 85.9587 587.541 86.844 587.646C89.3992 587.972 91.8973 588.418 94.4156 588.971C95.2258 589.148 96.036 589.325 96.8708 589.508C97.7219 589.697 98.5731 589.885 99.45 590.08C100.337 590.275 101.224 590.47 102.138 590.671C109.549 592.307 116.947 593.997 124.336 595.729C125.883 596.087 127.431 596.435 128.981 596.777C129.824 596.966 130.667 597.154 131.535 597.349C132.586 597.579 132.586 597.579 133.658 597.814C135.36 598.309 135.36 598.309 137.52 599.771C137.726 601.915 137.792 603.903 137.765 606.048C137.766 606.697 137.766 607.346 137.766 608.015C137.765 610.169 137.748 612.321 137.731 614.474C137.727 615.964 137.724 617.455 137.722 618.945C137.713 622.872 137.692 626.799 137.668 630.727C137.642 635.436 137.632 640.145 137.62 644.855C137.599 652.014 137.557 659.172 137.52 666.331C164.606 666.693 164.606 666.693 192.24 667.063C192.478 670.683 192.715 674.304 192.96 678.034C195.098 678.276 197.237 678.517 199.44 678.766C199.438 677.988 199.437 677.211 199.435 676.41C199.421 669.102 199.41 661.794 199.403 654.485C199.399 650.727 199.394 646.97 199.386 643.212C199.378 639.589 199.374 635.965 199.372 632.342C199.37 630.957 199.368 629.571 199.364 628.186C199.359 626.252 199.358 624.318 199.358 622.384C199.356 621.806 199.353 621.227 199.35 620.631C199.358 616.678 199.358 616.678 200.16 615.863C201.253 615.807 202.349 615.802 203.444 615.817C204.143 615.824 204.843 615.83 205.564 615.837C206.328 615.846 207.091 615.854 207.878 615.863C209.486 615.864 211.095 615.863 212.704 615.86C215.247 615.857 217.787 615.863 220.33 615.9C222.78 615.934 225.227 615.925 227.678 615.909C228.805 615.939 228.805 615.939 229.956 615.97C234.355 615.898 236.585 615.178 239.753 611.991C240.734 610.861 241.698 609.713 242.64 608.549C243.582 607.48 244.527 606.412 245.475 605.349C247.847 602.58 249.294 600.733 249.338 596.975C249.35 596.26 249.362 595.545 249.374 594.809C249.381 594.038 249.387 593.268 249.393 592.474C249.405 591.684 249.417 590.893 249.43 590.078C249.468 587.549 249.497 585.02 249.525 582.491C249.557 579.957 249.59 577.423 249.628 574.889C249.651 573.311 249.67 571.732 249.686 570.154C249.7 569.088 249.7 569.088 249.715 568.001C249.722 567.373 249.729 566.744 249.736 566.097C249.84 564.663 249.84 564.663 250.56 563.931C251.934 563.859 253.311 563.839 254.687 563.839C256.032 563.835 256.032 563.835 257.404 563.832C258.407 563.834 259.409 563.835 260.412 563.837C261.461 563.836 262.51 563.834 263.559 563.833C266.415 563.83 269.271 563.831 272.127 563.833C275.109 563.835 278.092 563.833 281.074 563.832C286.083 563.831 291.093 563.833 296.102 563.836C301.902 563.84 307.702 563.839 313.502 563.835C318.472 563.831 323.443 563.831 328.413 563.833C331.386 563.834 334.359 563.834 337.331 563.832C340.126 563.83 342.919 563.831 345.714 563.835C346.742 563.836 347.77 563.836 348.799 563.834C350.197 563.832 351.595 563.835 352.993 563.839C353.777 563.839 354.561 563.839 355.369 563.839C357.12 563.931 357.12 563.931 357.84 564.663C357.904 566.4 357.923 568.117 357.91 569.854C357.909 570.632 357.909 570.632 357.907 571.425C357.903 573.087 357.894 574.749 357.885 576.411C357.881 577.536 357.878 578.66 357.875 579.784C357.867 582.546 357.855 585.307 357.84 588.069C358.315 587.827 358.79 587.586 359.28 587.337C360.986 587.262 362.671 587.23 364.378 587.231C364.902 587.228 365.427 587.226 365.967 587.223C367.706 587.216 369.444 587.215 371.183 587.214C372.388 587.212 373.593 587.209 374.798 587.207C377.326 587.203 379.853 587.201 382.381 587.202C385.625 587.202 388.87 587.192 392.114 587.179C394.603 587.171 397.092 587.169 399.582 587.17C400.778 587.169 401.975 587.166 403.171 587.16C404.842 587.153 406.512 587.155 408.182 587.159C408.68 587.155 409.177 587.151 409.69 587.147C413.116 587.17 413.116 587.17 414.72 588.8C414.795 590.692 414.785 592.497 414.703 594.383C414.676 595.208 414.676 595.208 414.649 596.049C414.589 597.808 414.52 599.567 414.45 601.326C414.408 602.517 414.367 603.709 414.326 604.9C414.225 607.823 414.115 610.746 414 613.669C414.877 613.667 414.877 613.667 415.773 613.664C429.989 613.632 444.206 613.608 458.423 613.593C465.298 613.585 472.173 613.575 479.048 613.558C485.038 613.544 491.029 613.534 497.019 613.531C500.193 613.529 503.366 613.525 506.54 613.514C509.524 613.504 512.509 613.501 515.493 613.503C516.591 613.503 517.688 613.5 518.786 613.494C520.28 613.487 521.774 613.489 523.268 613.493C524.106 613.491 524.943 613.49 525.806 613.489C527.76 613.669 527.76 613.669 529.2 615.131C529.2 620.683 529.2 626.235 529.2 631.954C546.782 631.954 564.365 631.954 582.48 631.954C582.366 622.698 582.366 622.698 582.221 613.442C582.212 612.28 582.205 611.117 582.199 609.954C582.184 609.353 582.169 608.752 582.154 608.133C582.152 603.904 582.152 603.904 583.666 601.714C585.622 600.315 587.593 599.136 589.711 598.003C590.543 597.554 591.375 597.104 592.232 596.641C593.106 596.176 593.981 595.711 594.855 595.246C596.576 594.323 598.296 593.397 600.016 592.471C601.159 591.862 601.159 591.862 602.326 591.239C603.993 590.42 603.993 590.42 604.8 589.531C605.902 589.461 607.008 589.442 608.112 589.443C608.828 589.442 609.544 589.441 610.281 589.44C611.073 589.443 611.865 589.446 612.681 589.448C613.924 589.448 613.924 589.448 615.192 589.448C617.947 589.449 620.701 589.454 623.455 589.46C625.359 589.461 627.263 589.462 629.167 589.463C633.675 589.465 638.183 589.471 642.692 589.479C648.326 589.488 653.96 589.492 659.595 589.496C669.65 589.503 679.705 589.517 689.76 589.531C689.76 571.187 689.76 552.843 689.76 533.943C716.815 533.913 716.815 533.913 728.115 533.907C735.931 533.903 743.747 533.898 751.563 533.888C757.254 533.88 762.946 533.876 768.637 533.874C771.652 533.873 774.667 533.871 777.683 533.866C780.518 533.861 783.352 533.859 786.187 533.86C787.231 533.86 788.274 533.858 789.318 533.856C790.736 533.852 792.155 533.853 793.573 533.855C794.767 533.854 794.767 533.854 795.985 533.853C797.76 533.943 797.76 533.943 798.48 534.674C798.549 535.831 798.568 536.991 798.567 538.15C798.568 538.902 798.569 539.654 798.57 540.428C798.567 541.26 798.564 542.092 798.562 542.949C798.562 543.819 798.562 544.69 798.562 545.587C798.562 547.98 798.558 550.374 798.553 552.767C798.548 555.266 798.548 557.766 798.547 560.265C798.545 565 798.539 569.735 798.532 574.47C798.524 579.86 798.52 585.25 798.516 590.639C798.509 601.729 798.496 612.819 798.48 623.909C808.459 623.909 818.438 623.909 828.72 623.909C828.712 619.693 828.703 615.478 828.695 611.134C828.691 608.471 828.688 605.808 828.685 603.144C828.681 598.913 828.675 594.681 828.666 590.449C828.658 587.04 828.654 583.63 828.652 580.22C828.65 578.916 828.648 577.612 828.644 576.308C828.639 574.488 828.638 572.669 828.638 570.849C828.636 570.304 828.633 569.76 828.63 569.199C828.638 565.478 828.638 565.478 829.44 564.663C831.698 564.593 833.939 564.571 836.197 564.58C837.261 564.58 837.261 564.58 838.347 564.579C840.704 564.58 843.061 564.586 845.418 564.591C847.047 564.593 848.677 564.594 850.306 564.595C854.604 564.597 858.902 564.605 863.2 564.613C867.582 564.62 871.964 564.623 876.346 564.627C884.95 564.635 893.555 564.647 902.16 564.663C902.156 564.246 902.152 563.829 902.149 563.399C902.134 561.519 902.124 559.64 902.115 557.76C902.109 557.103 902.103 556.447 902.097 555.77C902.094 555.145 902.092 554.521 902.09 553.877C902.086 553.299 902.082 552.72 902.078 552.124C902.16 550.766 902.16 550.766 902.88 550.034C903.847 549.971 904.817 549.956 905.785 549.963C906.572 549.966 906.572 549.966 907.375 549.968C908.045 549.975 908.715 549.982 909.405 549.989C912.59 550.011 912.59 550.011 915.84 550.034C915.84 555.827 915.84 561.62 915.84 567.589C917.902 567.58 919.965 567.572 922.089 567.563C924.081 567.557 926.074 567.553 928.066 567.548C929.453 567.545 930.84 567.54 932.227 567.533C934.218 567.525 936.208 567.52 938.199 567.517C939.133 567.511 939.133 567.511 940.086 567.506C944.476 567.505 944.476 567.505 946.08 568.32C946.08 580.389 946.08 592.457 946.08 604.891C958.91 604.891 971.741 604.891 984.96 604.891C984.96 618.65 984.96 632.408 984.96 646.583C993.523 646.57 993.523 646.57 1002.26 646.557C1005.87 646.553 1009.47 646.55 1013.08 646.547C1018.81 646.543 1024.54 646.538 1030.27 646.528C1034.88 646.52 1039.5 646.515 1044.12 646.513C1045.88 646.512 1047.65 646.509 1049.42 646.506C1051.88 646.5 1054.34 646.499 1056.81 646.5C1057.55 646.497 1058.28 646.495 1059.04 646.492C1059.71 646.493 1060.38 646.494 1061.07 646.495C1061.65 646.494 1062.23 646.494 1062.83 646.493C1064.16 646.583 1064.16 646.583 1064.88 647.314C1064.95 649.117 1064.97 650.899 1064.96 652.702C1064.96 653.265 1064.96 653.829 1064.96 654.41C1064.96 656.282 1064.96 658.154 1064.95 660.026C1064.95 661.32 1064.95 662.615 1064.95 663.909C1064.94 667.323 1064.94 670.737 1064.93 674.15C1064.92 677.631 1064.92 681.112 1064.92 684.593C1064.91 691.428 1064.9 698.262 1064.88 705.097C1065.41 704.85 1065.93 704.602 1066.48 704.347C1068.86 703.231 1071.26 702.129 1073.66 701.029C1074.48 700.639 1075.31 700.249 1076.17 699.847C1076.97 699.482 1077.77 699.116 1078.59 698.74C1079.33 698.399 1080.06 698.058 1080.82 697.707C1082.88 697.051 1082.88 697.051 1086.48 697.783C1086.48 701.162 1086.48 704.541 1086.48 708.023C1089.33 708.264 1092.18 708.506 1095.12 708.754C1095.12 701.272 1095.12 693.789 1095.12 686.08C1097.78 685.179 1100.23 685.258 1103 685.277C1103.84 685.279 1103.84 685.279 1104.69 685.28C1106.46 685.284 1108.24 685.294 1110.02 685.303C1111.22 685.307 1112.42 685.31 1113.63 685.313C1116.58 685.321 1119.53 685.334 1122.48 685.349C1122.48 684.819 1122.48 684.289 1122.48 683.743C1122.46 678.76 1122.45 673.776 1122.44 668.793C1122.44 666.23 1122.43 663.668 1122.43 661.106C1122.42 658.163 1122.41 655.22 1122.41 652.277C1122.4 650.891 1122.4 650.891 1122.4 649.477C1122.4 648.627 1122.4 647.778 1122.4 646.903C1122.4 646.151 1122.4 645.399 1122.39 644.624C1122.48 642.926 1122.48 642.926 1123.2 642.194C1134.6 642.194 1146.01 642.194 1157.76 642.194C1157.76 580.886 1157.76 519.578 1157.76 456.411ZM979.2 749.714C978.962 752.128 978.725 754.542 978.48 757.029C978.005 757.029 977.53 757.029 977.04 757.029C976.802 756.304 976.565 755.58 976.32 754.834C975.686 760.126 975.51 765.324 975.555 770.651C975.558 771.386 975.562 772.12 975.565 772.877C975.573 774.665 975.585 776.452 975.6 778.24C976.075 778.24 976.55 778.24 977.04 778.24C977.515 777.275 977.99 776.309 978.48 775.314C978.48 776.28 978.48 777.245 978.48 778.24C979.549 777.878 979.549 777.878 980.64 777.509C980.676 774.02 980.702 770.533 980.719 767.044C980.726 765.858 980.736 764.672 980.749 763.486C980.766 761.779 980.774 760.072 980.781 758.366C980.788 757.837 980.796 757.308 980.803 756.763C980.804 753.81 980.542 752.44 979.2 749.714Z" fill="#2C2F32"/>
<path d="M689.76 533.943C716.815 533.913 716.815 533.913 728.115 533.907C735.931 533.903 743.747 533.898 751.563 533.888C757.254 533.88 762.946 533.876 768.637 533.874C771.652 533.873 774.667 533.871 777.683 533.866C780.518 533.861 783.352 533.859 786.187 533.86C787.231 533.86 788.274 533.858 789.318 533.856C790.736 533.852 792.155 533.853 793.573 533.855C794.767 533.854 794.767 533.854 795.985 533.853C797.76 533.943 797.76 533.943 798.48 534.674C798.549 535.84 798.568 537.01 798.567 538.178C798.568 538.936 798.569 539.694 798.57 540.475C798.567 541.313 798.564 542.152 798.562 543.016C798.562 543.893 798.562 544.771 798.562 545.675C798.562 548.089 798.558 550.502 798.553 552.915C798.549 555.435 798.548 557.954 798.547 560.474C798.545 565.248 798.539 570.022 798.532 574.796C798.524 580.23 798.52 585.664 798.516 591.098C798.509 602.279 798.496 613.459 798.48 624.64C798.02 624.628 797.559 624.616 797.085 624.604C792.26 624.488 787.438 624.44 782.611 624.43C780.814 624.418 779.018 624.389 777.221 624.342C766.869 623.574 766.869 623.574 757.608 627.219C756.231 628.765 755.165 630.323 754.149 632.129C752.798 634.389 751.249 636.082 749.348 637.9C744.523 642.741 743.603 647.105 743.455 653.857C743.449 656.097 743.481 658.335 743.515 660.575C743.51 662.198 743.502 663.821 743.49 665.443C743.469 669.824 743.496 674.204 743.532 678.584C743.561 683.172 743.545 687.758 743.535 692.346C743.523 700.037 743.538 707.727 743.575 715.418C743.613 723.336 743.634 731.253 743.633 739.17C743.633 739.659 743.633 740.148 743.632 740.652C743.632 743.106 743.631 745.56 743.63 748.013C743.624 768.329 743.675 788.644 743.76 808.96C736.87 808.96 729.979 808.96 722.88 808.96C722.88 772.513 722.88 736.066 722.88 698.514C701.971 698.514 681.062 698.514 659.52 698.514C659.52 736.651 659.52 774.788 659.52 814.08C655.317 811.945 651.747 809.746 648.72 806.034C647.605 802.241 647.713 798.588 647.821 794.678C647.823 793.521 647.822 792.363 647.818 791.205C647.816 788.119 647.862 785.035 647.918 781.95C647.963 779.049 647.965 776.148 647.971 773.247C648.012 764.778 648.123 756.309 648.225 747.84C648.388 728.907 648.552 709.975 648.72 690.469C606.665 690.469 564.61 690.469 521.28 690.469C521.28 721.847 521.28 753.225 521.28 785.554C505.836 785.554 490.392 785.554 474.48 785.554C474.522 791.32 474.564 797.085 474.607 803.026C474.625 806.676 474.642 810.326 474.656 813.976C474.677 819.771 474.703 825.566 474.752 831.361C474.791 836.032 474.812 840.703 474.822 845.375C474.828 847.158 474.841 848.941 474.861 850.724C474.887 853.22 474.89 855.715 474.889 858.211C474.902 858.95 474.915 859.689 474.928 860.45C474.891 865.484 474.891 865.484 472.732 868.252C471.815 868.953 471.815 868.953 470.88 869.669C470.473 870.068 470.066 870.467 469.646 870.878C468.471 872.002 467.291 873.122 466.11 874.24C465.698 874.636 465.286 875.032 464.861 875.44C463.046 877.156 461.74 878.371 459.36 879.177C459.36 879.901 459.36 880.625 459.36 881.371C458.177 882.131 456.975 882.86 455.76 883.566C455.285 884.29 454.81 885.014 454.32 885.76C453.845 885.76 453.37 885.76 452.88 885.76C452.88 886.243 452.88 886.725 452.88 887.223C451.721 888.434 451.721 888.434 450.18 889.783C449.679 890.228 449.178 890.673 448.661 891.131C447.12 892.343 447.12 892.343 445.534 893.097C443.983 893.753 443.983 893.753 443.52 896C443.045 896 442.57 896 442.08 896C441.842 896.724 441.605 897.448 441.36 898.194C440.333 899.246 440.333 899.246 438.975 900.389C436.314 902.682 433.716 905.032 431.145 907.429C430.607 907.928 430.607 907.928 430.057 908.437C428.404 909.977 426.788 911.537 425.213 913.16C411.495 926.906 413.464 919.406 382.32 919.406C382.32 835.167 382.32 750.928 382.32 664.137C380.894 663.654 379.469 663.172 378 662.674C376.895 662.091 375.809 661.469 374.746 660.811C374.137 660.44 373.529 660.068 372.902 659.685C371.928 659.083 371.928 659.083 370.935 658.469C364.183 654.348 357.354 650.393 350.454 646.535C346.205 644.145 342.074 641.633 338.003 638.943C335.812 637.529 333.556 636.267 331.276 635.009C329.806 634.174 328.389 633.287 326.97 632.366C324.816 630.975 322.621 629.715 320.372 628.491C315.388 625.745 310.535 622.787 305.674 619.824C304.666 619.214 304.666 619.214 303.638 618.591C303.036 618.225 302.434 617.858 301.814 617.481C300.193 616.504 300.193 616.504 298.08 615.863C298.08 615.38 298.08 614.897 298.08 614.4C297.367 614.4 296.654 614.4 295.92 614.4C295.92 613.917 295.92 613.435 295.92 612.937C294.494 612.454 293.069 611.972 291.6 611.474C288.749 609.785 285.898 608.095 282.96 606.354C282.96 684.076 282.96 761.797 282.96 841.874C275.119 841.874 267.278 841.874 259.2 841.874C259.2 788.29 259.2 734.705 259.2 679.497C249.458 679.738 239.717 679.98 229.68 680.229C222.313 680.282 214.949 680.316 207.582 680.3C205.655 680.299 203.728 680.298 201.801 680.297C197.344 680.295 192.888 680.289 188.432 680.281C182.829 680.272 177.226 680.268 171.623 680.264C161.695 680.257 151.768 680.243 141.84 680.229C141.602 698.573 141.365 716.917 141.12 735.817C123.062 735.817 105.005 735.817 86.4 735.817C86.4 824.883 86.4 913.949 86.4 1005.71C78.7968 1005.71 71.1936 1005.71 63.36 1005.71C63.36 967.095 63.36 928.475 63.36 888.686C42.4512 888.686 21.5424 888.686 0 888.686C0 774.517 0 660.348 0 542.72C27.5616 542.72 55.1232 542.72 83.52 542.72C84.24 543.451 84.24 543.451 84.3266 545.205C84.325 545.983 84.3234 546.761 84.3217 547.563C84.3217 548.881 84.3216 548.881 84.3216 550.225C84.3178 551.182 84.3141 552.138 84.3103 553.123C84.309 554.106 84.308 555.089 84.3072 556.071C84.3045 558.663 84.2974 561.254 84.2894 563.845C84.2821 566.488 84.2788 569.13 84.2752 571.773C84.2674 576.961 84.2551 582.149 84.24 587.337C85.0993 587.439 85.9587 587.541 86.844 587.646C89.3992 587.972 91.8973 588.418 94.4156 588.971C95.2258 589.148 96.036 589.325 96.8708 589.508C97.7219 589.697 98.5731 589.885 99.45 590.08C100.337 590.275 101.224 590.47 102.138 590.671C109.549 592.307 116.947 593.997 124.336 595.729C125.883 596.087 127.431 596.435 128.981 596.777C129.824 596.966 130.667 597.154 131.535 597.349C132.586 597.579 132.586 597.579 133.658 597.814C135.36 598.309 135.36 598.309 137.52 599.771C137.726 601.915 137.792 603.903 137.765 606.047C137.766 606.697 137.766 607.346 137.766 608.015C137.765 610.169 137.748 612.321 137.731 614.474C137.727 615.964 137.724 617.455 137.722 618.945C137.713 622.872 137.692 626.799 137.668 630.727C137.642 635.436 137.632 640.145 137.62 644.855C137.599 652.014 137.557 659.172 137.52 666.331C155.578 666.573 173.635 666.814 192.24 667.063C192.478 670.683 192.715 674.304 192.96 678.034C195.098 678.276 197.237 678.517 199.44 678.766C199.438 677.988 199.437 677.211 199.435 676.41C199.421 669.102 199.41 661.794 199.403 654.485C199.399 650.727 199.394 646.97 199.386 643.212C199.378 639.589 199.374 635.965 199.372 632.342C199.37 630.957 199.368 629.571 199.364 628.186C199.359 626.252 199.358 624.318 199.358 622.384C199.356 621.806 199.353 621.227 199.35 620.631C199.358 616.678 199.358 616.678 200.16 615.863C201.253 615.807 202.349 615.802 203.444 615.817C204.143 615.824 204.843 615.83 205.564 615.837C206.709 615.85 206.709 615.85 207.878 615.863C209.486 615.864 211.095 615.863 212.704 615.86C215.247 615.857 217.787 615.863 220.33 615.9C222.78 615.934 225.227 615.925 227.678 615.909C228.429 615.929 229.181 615.949 229.956 615.97C234.355 615.898 236.585 615.178 239.753 611.991C240.734 610.861 241.698 609.713 242.64 608.549C243.582 607.479 244.527 606.412 245.475 605.349C247.847 602.58 249.294 600.733 249.338 596.975C249.35 596.26 249.362 595.545 249.374 594.809C249.381 594.038 249.387 593.268 249.393 592.474C249.405 591.684 249.417 590.893 249.43 590.078C249.468 587.549 249.497 585.02 249.525 582.491C249.557 579.957 249.59 577.423 249.628 574.889C249.651 573.311 249.67 571.732 249.686 570.154C249.7 569.088 249.7 569.088 249.715 568.001C249.722 567.373 249.729 566.744 249.736 566.097C249.84 564.663 249.84 564.663 250.56 563.931C251.934 563.859 253.311 563.839 254.687 563.839C256.032 563.835 256.032 563.835 257.404 563.832C258.407 563.834 259.409 563.835 260.412 563.837C261.461 563.836 262.51 563.834 263.559 563.833C266.415 563.83 269.271 563.831 272.127 563.833C275.109 563.835 278.092 563.833 281.074 563.832C286.083 563.831 291.093 563.833 296.102 563.836C301.902 563.84 307.702 563.839 313.502 563.835C318.472 563.831 323.443 563.831 328.413 563.833C331.386 563.834 334.359 563.834 337.331 563.832C340.125 563.83 342.92 563.831 345.714 563.835C346.742 563.836 347.77 563.836 348.799 563.834C350.197 563.832 351.595 563.835 352.993 563.839C353.777 563.839 354.561 563.839 355.369 563.839C357.12 563.931 357.12 563.931 357.84 564.663C357.904 566.4 357.923 568.117 357.91 569.854C357.909 570.632 357.909 570.632 357.907 571.425C357.903 573.087 357.894 574.749 357.885 576.411C357.881 577.536 357.878 578.66 357.875 579.784C357.867 582.546 357.855 585.307 357.84 588.069C358.315 587.827 358.79 587.586 359.28 587.337C360.986 587.262 362.671 587.23 364.378 587.231C365.165 587.227 365.165 587.227 365.967 587.223C367.706 587.216 369.444 587.215 371.183 587.214C372.388 587.212 373.593 587.209 374.798 587.207C377.326 587.203 379.853 587.201 382.381 587.202C385.625 587.202 388.87 587.192 392.114 587.179C394.603 587.171 397.092 587.169 399.582 587.17C400.778 587.169 401.975 587.166 403.171 587.16C404.842 587.153 406.512 587.155 408.182 587.159C408.68 587.155 409.177 587.151 409.69 587.147C413.116 587.17 413.116 587.17 414.72 588.8C414.795 590.692 414.785 592.497 414.703 594.383C414.676 595.208 414.676 595.208 414.649 596.049C414.589 597.808 414.52 599.567 414.45 601.326C414.408 602.517 414.367 603.709 414.326 604.9C414.225 607.823 414.115 610.746 414 613.669C414.877 613.667 414.877 613.667 415.773 613.664C429.989 613.632 444.206 613.608 458.423 613.593C465.298 613.585 472.173 613.575 479.048 613.558C485.038 613.544 491.029 613.534 497.019 613.531C500.193 613.529 503.366 613.525 506.54 613.514C509.524 613.504 512.509 613.501 515.493 613.503C516.591 613.503 517.688 613.5 518.786 613.494C520.28 613.487 521.774 613.489 523.268 613.493C524.106 613.491 524.943 613.49 525.806 613.489C527.76 613.669 527.76 613.669 529.2 615.131C529.2 620.683 529.2 626.234 529.2 631.954C546.782 631.954 564.365 631.954 582.48 631.954C582.366 622.698 582.366 622.698 582.221 613.442C582.212 612.28 582.205 611.117 582.199 609.954C582.184 609.353 582.169 608.752 582.154 608.133C582.152 603.903 582.152 603.903 583.666 601.714C585.622 600.315 587.593 599.136 589.711 598.003C590.543 597.554 591.375 597.104 592.232 596.641C593.106 596.176 593.981 595.711 594.855 595.246C596.576 594.323 598.296 593.397 600.016 592.471C600.778 592.065 601.54 591.658 602.326 591.239C603.993 590.42 603.993 590.42 604.8 589.531C605.902 589.461 607.008 589.442 608.112 589.443C608.828 589.442 609.544 589.441 610.281 589.44C611.073 589.443 611.865 589.446 612.681 589.448C613.924 589.448 613.924 589.448 615.192 589.448C617.947 589.449 620.701 589.454 623.455 589.46C625.359 589.461 627.263 589.462 629.167 589.463C633.675 589.465 638.183 589.471 642.692 589.479C648.326 589.488 653.96 589.492 659.595 589.496C669.65 589.503 679.705 589.517 689.76 589.531C689.76 571.187 689.76 552.843 689.76 533.943Z" fill="#4A494A"/>
<path d="M0 542.72C27.5616 542.72 55.1232 542.72 83.52 542.72C84.24 543.451 84.24 543.451 84.3266 545.205C84.325 545.983 84.3234 546.761 84.3217 547.563C84.3217 548.881 84.3217 548.881 84.3216 550.225C84.3179 551.182 84.3141 552.138 84.3103 553.123C84.309 554.106 84.3079 555.089 84.3072 556.071C84.3045 558.663 84.2974 561.254 84.2894 563.845C84.2821 566.488 84.2788 569.13 84.2752 571.773C84.2674 576.961 84.2551 582.149 84.24 587.337C85.0993 587.439 85.9586 587.541 86.844 587.646C89.3992 587.972 91.8972 588.418 94.4156 588.971C95.2258 589.148 96.036 589.325 96.8708 589.508C97.7219 589.697 98.5731 589.885 99.45 590.08C100.337 590.275 101.224 590.47 102.138 590.671C109.549 592.307 116.947 593.997 124.336 595.729C125.883 596.087 127.431 596.435 128.981 596.777C129.824 596.966 130.667 597.154 131.535 597.349C132.586 597.579 132.586 597.579 133.658 597.814C135.36 598.309 135.36 598.309 137.52 599.771C137.726 601.915 137.792 603.903 137.765 606.047C137.766 606.697 137.766 607.346 137.766 608.015C137.765 610.169 137.748 612.321 137.731 614.474C137.727 615.964 137.724 617.455 137.722 618.945C137.713 622.872 137.692 626.799 137.668 630.727C137.642 635.436 137.632 640.145 137.62 644.855C137.599 652.014 137.557 659.172 137.52 666.331C155.578 666.573 173.635 666.814 192.24 667.063C192.478 670.683 192.715 674.304 192.96 678.034C195.098 678.276 197.237 678.517 199.44 678.766C199.438 677.988 199.437 677.211 199.435 676.41C199.421 669.102 199.41 661.794 199.403 654.485C199.399 650.727 199.394 646.97 199.386 643.212C199.378 639.589 199.374 635.965 199.372 632.342C199.37 630.957 199.368 629.571 199.364 628.185C199.359 626.252 199.358 624.318 199.358 622.384C199.356 621.806 199.353 621.227 199.35 620.631C199.358 616.678 199.358 616.678 200.16 615.863C201.253 615.807 202.349 615.802 203.444 615.817C204.143 615.824 204.843 615.83 205.564 615.837C206.709 615.85 206.709 615.85 207.877 615.863C209.486 615.864 211.095 615.863 212.704 615.86C215.246 615.857 217.787 615.863 220.33 615.9C222.78 615.934 225.227 615.925 227.677 615.909C228.429 615.929 229.181 615.949 229.956 615.97C234.355 615.898 236.585 615.178 239.753 611.991C240.734 610.861 241.698 609.713 242.64 608.549C243.582 607.479 244.527 606.412 245.475 605.349C247.847 602.58 249.294 600.733 249.338 596.975C249.35 596.26 249.362 595.545 249.374 594.809C249.38 594.038 249.387 593.268 249.393 592.474C249.405 591.684 249.417 590.893 249.43 590.078C249.468 587.549 249.497 585.02 249.525 582.491C249.557 579.957 249.59 577.423 249.628 574.889C249.651 573.311 249.67 571.732 249.686 570.154C249.7 569.088 249.7 569.088 249.715 568.001C249.722 567.373 249.729 566.744 249.736 566.097C249.84 564.663 249.84 564.663 250.56 563.931C251.934 563.859 253.311 563.839 254.687 563.839C256.032 563.835 256.032 563.835 257.404 563.832C258.407 563.834 259.409 563.835 260.412 563.837C261.461 563.836 262.51 563.834 263.559 563.833C266.415 563.83 269.271 563.831 272.127 563.833C275.109 563.835 278.092 563.833 281.074 563.832C286.083 563.831 291.093 563.833 296.102 563.836C301.902 563.84 307.702 563.839 313.502 563.835C318.472 563.831 323.443 563.831 328.413 563.833C331.386 563.834 334.359 563.834 337.331 563.832C340.125 563.83 342.92 563.831 345.714 563.835C346.742 563.836 347.77 563.836 348.799 563.834C350.197 563.832 351.595 563.835 352.993 563.839C353.777 563.839 354.561 563.839 355.369 563.839C357.12 563.931 357.12 563.931 357.84 564.663C357.904 566.4 357.923 568.117 357.91 569.854C357.909 570.632 357.909 570.632 357.907 571.425C357.903 573.087 357.894 574.749 357.885 576.411C357.881 577.536 357.878 578.66 357.875 579.784C357.867 582.546 357.855 585.307 357.84 588.069C358.315 587.827 358.79 587.586 359.28 587.337C360.986 587.262 362.671 587.23 364.378 587.231C365.165 587.227 365.165 587.227 365.967 587.223C367.706 587.216 369.444 587.215 371.182 587.214C372.388 587.212 373.593 587.209 374.798 587.207C377.326 587.202 379.853 587.201 382.381 587.202C385.625 587.202 388.87 587.192 392.114 587.179C394.603 587.171 397.092 587.169 399.582 587.17C400.778 587.169 401.975 587.166 403.171 587.16C404.842 587.153 406.512 587.155 408.182 587.159C408.68 587.155 409.177 587.151 409.69 587.147C413.116 587.17 413.116 587.17 414.72 588.8C414.795 590.744 414.784 592.604 414.703 594.543C414.676 595.392 414.676 595.392 414.649 596.258C414.589 598.07 414.52 599.88 414.45 601.691C414.408 602.918 414.367 604.145 414.326 605.371C414.225 608.381 414.115 611.391 414 614.4C413.263 614.417 412.526 614.435 411.767 614.452C410.788 614.492 409.809 614.533 408.831 614.574C408.346 614.583 407.862 614.593 407.363 614.602C403.794 614.776 402.022 615.65 399.51 618.194C398.551 619.343 397.622 620.518 396.72 621.714C396.107 622.345 395.494 622.976 394.862 623.626C392.577 626.424 392.613 628.937 392.66 632.462C392.654 633.093 392.648 633.724 392.642 634.374C392.626 636.483 392.635 638.592 392.645 640.701C392.639 642.215 392.631 643.729 392.622 645.243C392.602 649.35 392.604 653.457 392.61 657.564C392.612 661.857 392.594 666.151 392.578 670.444C392.551 678.572 392.542 686.701 392.54 694.83C392.537 704.084 392.513 713.339 392.488 722.594C392.436 741.63 392.409 760.666 392.4 779.703C389.074 779.703 385.747 779.703 382.32 779.703C382.32 741.566 382.32 703.429 382.32 664.137C380.894 663.654 379.469 663.172 378 662.674C376.895 662.091 375.809 661.469 374.746 660.811C374.137 660.44 373.529 660.068 372.902 659.685C371.928 659.083 371.928 659.083 370.935 658.469C364.183 654.348 357.354 650.393 350.453 646.535C346.205 644.145 342.074 641.633 338.003 638.943C335.812 637.529 333.556 636.267 331.276 635.009C329.806 634.174 328.389 633.287 326.97 632.366C324.816 630.975 322.621 629.715 320.372 628.491C315.388 625.745 310.535 622.787 305.674 619.824C304.666 619.214 304.666 619.214 303.637 618.591C303.036 618.225 302.434 617.858 301.814 617.481C300.193 616.504 300.193 616.504 298.08 615.863C298.08 615.38 298.08 614.897 298.08 614.4C297.367 614.4 296.654 614.4 295.92 614.4C295.92 613.917 295.92 613.434 295.92 612.937C294.494 612.454 293.069 611.972 291.6 611.474C288.749 609.785 285.898 608.095 282.96 606.354C282.96 684.076 282.96 761.797 282.96 841.874C275.119 841.874 267.278 841.874 259.2 841.874C259.2 788.29 259.2 734.705 259.2 679.497C249.458 679.738 239.717 679.98 229.68 680.229C222.313 680.282 214.949 680.316 207.582 680.3C205.655 680.299 203.728 680.298 201.801 680.297C197.344 680.295 192.888 680.289 188.432 680.281C182.829 680.272 177.226 680.268 171.623 680.264C161.695 680.257 151.768 680.243 141.84 680.229C141.602 698.573 141.365 716.917 141.12 735.817C123.062 735.817 105.005 735.817 86.4 735.817C86.4 824.883 86.4 913.949 86.4 1005.71C78.7968 1005.71 71.1936 1005.71 63.36 1005.71C63.36 967.095 63.36 928.475 63.36 888.686C42.4512 888.686 21.5424 888.686 0 888.686C0 774.517 0 660.348 0 542.72Z" fill="#484748"/>
<path d="M1157.76 456.411C1195.52 456.389 1195.52 456.389 1234.04 456.366C1242 456.359 1249.96 456.352 1258.16 456.346C1267.85 456.342 1267.85 456.342 1272.38 456.342C1275.55 456.341 1278.73 456.338 1281.91 456.334C1285.95 456.329 1290 456.328 1294.04 456.329C1295.53 456.329 1297.02 456.327 1298.51 456.324C1300.51 456.321 1302.52 456.321 1304.52 456.323C1305.11 456.321 1305.7 456.319 1306.31 456.317C1310.32 456.328 1310.32 456.328 1311.12 457.143C1311.19 459.392 1311.21 461.624 1311.2 463.873C1311.2 464.95 1311.2 464.95 1311.2 466.048C1311.2 468.384 1311.2 470.719 1311.19 473.054C1311.19 474.491 1311.19 475.929 1311.19 477.366C1311.18 482.709 1311.17 488.051 1311.17 493.394C1311.15 505.327 1311.14 517.26 1311.12 529.554C1349.85 529.554 1388.58 529.554 1428.48 529.554C1428.48 563.337 1428.48 563.337 1428.43 573.998C1428.45 577.156 1428.45 577.156 1428.47 580.314C1428.48 581.718 1428.47 583.123 1428.46 584.528C1428.44 586.659 1428.46 588.787 1428.48 590.918C1428.46 591.854 1428.46 591.854 1428.44 592.809C1428.51 596.111 1428.51 596.111 1430.35 598.697C1431.85 599.666 1433.36 600.446 1434.96 601.234C1436.62 602.2 1438.29 603.165 1440 604.16C1440 618.642 1440 633.125 1440 648.046C1424.08 648.046 1408.16 648.046 1391.76 648.046C1391.76 642.977 1391.76 637.908 1391.76 632.686C1376.55 632.686 1361.35 632.686 1345.68 632.686C1345.68 603.238 1345.68 573.791 1345.68 543.451C1311.7 543.451 1277.73 543.451 1242.72 543.451C1242.72 561.796 1242.72 580.14 1242.72 599.04C1240.58 599.04 1238.44 599.04 1236.24 599.04C1236.24 657.935 1236.24 716.829 1236.24 777.509C1227.92 777.509 1219.61 777.509 1211.04 777.509C1211.04 755.061 1211.04 732.613 1211.04 709.486C1172.79 709.486 1134.53 709.486 1095.12 709.486C1095.12 701.762 1095.12 694.038 1095.12 686.08C1097.78 685.179 1100.23 685.258 1103 685.277C1103.56 685.278 1104.12 685.279 1104.69 685.28C1106.46 685.284 1108.24 685.294 1110.01 685.303C1111.22 685.307 1112.42 685.31 1113.63 685.313C1116.58 685.321 1119.53 685.334 1122.48 685.349C1122.48 684.819 1122.48 684.289 1122.48 683.743C1122.46 678.76 1122.45 673.776 1122.44 668.793C1122.44 666.23 1122.43 663.668 1122.43 661.106C1122.42 658.163 1122.41 655.22 1122.41 652.277C1122.4 650.891 1122.4 650.891 1122.4 649.477C1122.4 648.627 1122.4 647.778 1122.4 646.903C1122.4 646.151 1122.4 645.399 1122.39 644.624C1122.48 642.926 1122.48 642.926 1123.2 642.194C1134.6 642.194 1146.01 642.194 1157.76 642.194C1157.76 580.886 1157.76 519.578 1157.76 456.411Z" fill="#B2B2B2"/>
<path d="M689.76 533.943C716.815 533.913 716.815 533.913 728.116 533.907C735.931 533.903 743.747 533.898 751.563 533.888C757.254 533.88 762.946 533.876 768.637 533.874C771.652 533.873 774.667 533.871 777.683 533.866C780.518 533.861 783.352 533.859 786.187 533.86C787.231 533.86 788.274 533.858 789.318 533.856C790.736 533.852 792.155 533.853 793.573 533.855C794.767 533.854 794.767 533.854 795.985 533.853C797.76 533.943 797.76 533.943 798.48 534.674C798.549 535.84 798.568 537.01 798.567 538.178C798.568 539.315 798.568 539.315 798.57 540.475C798.567 541.313 798.564 542.152 798.562 543.016C798.562 543.893 798.562 544.771 798.562 545.675C798.562 548.089 798.558 550.502 798.553 552.915C798.549 555.435 798.548 557.954 798.547 560.474C798.545 565.248 798.539 570.022 798.532 574.796C798.524 580.23 798.52 585.664 798.516 591.098C798.509 602.279 798.496 613.459 798.48 624.64C798.02 624.628 797.559 624.616 797.085 624.604C792.26 624.488 787.438 624.44 782.611 624.43C780.814 624.418 779.018 624.389 777.221 624.342C766.869 623.574 766.869 623.574 757.608 627.219C756.231 628.765 755.165 630.323 754.149 632.129C752.798 634.389 751.249 636.082 749.348 637.9C744.523 642.741 743.603 647.105 743.455 653.857C743.449 656.097 743.481 658.335 743.515 660.575C743.51 662.198 743.502 663.821 743.49 665.443C743.469 669.824 743.496 674.204 743.532 678.584C743.561 683.172 743.545 687.758 743.535 692.346C743.523 700.037 743.538 707.727 743.575 715.418C743.613 723.336 743.634 731.253 743.633 739.17C743.632 739.903 743.632 739.903 743.632 740.652C743.632 743.106 743.631 745.56 743.63 748.013C743.624 768.329 743.675 788.644 743.76 808.96C736.87 808.96 729.979 808.96 722.88 808.96C722.88 772.513 722.88 736.066 722.88 698.514C701.971 698.514 681.062 698.514 659.52 698.514C659.52 736.651 659.52 774.788 659.52 814.08C655.317 811.945 651.748 809.746 648.72 806.034C647.605 802.241 647.713 798.588 647.821 794.678C647.823 793.521 647.822 792.363 647.818 791.205C647.816 788.119 647.862 785.035 647.918 781.95C647.963 779.049 647.965 776.148 647.971 773.247C648.012 764.778 648.123 756.309 648.225 747.84C648.47 719.441 648.47 719.441 648.72 690.469C609.041 690.469 569.362 690.469 528.48 690.469C528.48 671.4 528.48 652.332 528.48 632.686C546.3 632.444 564.12 632.203 582.48 631.954C582.366 622.698 582.366 622.698 582.221 613.442C582.212 612.28 582.205 611.117 582.199 609.954C582.184 609.353 582.169 608.752 582.154 608.133C582.152 603.903 582.152 603.903 583.666 601.714C585.622 600.315 587.593 599.136 589.711 598.003C590.543 597.554 591.375 597.104 592.232 596.641C593.106 596.176 593.981 595.711 594.855 595.246C596.576 594.323 598.296 593.397 600.016 592.471C600.778 592.065 601.54 591.658 602.326 591.239C603.993 590.42 603.993 590.42 604.8 589.531C605.902 589.461 607.008 589.442 608.112 589.443C608.828 589.442 609.544 589.441 610.281 589.44C611.073 589.443 611.865 589.446 612.681 589.448C613.924 589.448 613.924 589.448 615.192 589.448C617.947 589.449 620.701 589.454 623.455 589.46C625.359 589.461 627.263 589.462 629.167 589.463C633.675 589.465 638.183 589.471 642.692 589.479C648.326 589.488 653.96 589.492 659.595 589.496C669.65 589.503 679.705 589.517 689.76 589.531C689.76 571.187 689.76 552.843 689.76 533.943Z" fill="#B2B2B2"/>
<path d="M254.687 563.839C255.584 563.836 256.48 563.834 257.404 563.832C258.407 563.834 259.409 563.835 260.412 563.837C261.461 563.836 262.51 563.834 263.559 563.833C266.415 563.83 269.271 563.831 272.127 563.833C275.109 563.835 278.092 563.833 281.074 563.832C286.083 563.831 291.093 563.833 296.102 563.836C301.902 563.84 307.702 563.839 313.502 563.835C318.472 563.831 323.443 563.831 328.413 563.833C331.386 563.834 334.359 563.834 337.331 563.832C340.125 563.83 342.92 563.831 345.714 563.835C346.742 563.836 347.77 563.836 348.799 563.834C350.197 563.832 351.595 563.835 352.993 563.839C353.777 563.839 354.561 563.839 355.369 563.839C357.12 563.931 357.12 563.931 357.84 564.663C357.904 566.4 357.923 568.117 357.91 569.854C357.909 570.632 357.909 570.632 357.907 571.425C357.903 573.087 357.894 574.749 357.885 576.411C357.881 577.536 357.878 578.66 357.875 579.784C357.867 582.546 357.855 585.307 357.84 588.069C358.315 587.827 358.79 587.586 359.28 587.337C360.986 587.262 362.671 587.23 364.378 587.231C365.165 587.227 365.165 587.227 365.967 587.223C367.706 587.216 369.444 587.215 371.182 587.214C372.388 587.212 373.593 587.209 374.798 587.207C377.326 587.203 379.853 587.201 382.381 587.202C385.625 587.202 388.87 587.192 392.114 587.179C394.603 587.171 397.092 587.169 399.582 587.17C400.778 587.169 401.975 587.166 403.171 587.16C404.842 587.153 406.512 587.155 408.182 587.159C408.68 587.155 409.177 587.151 409.69 587.147C413.116 587.17 413.116 587.17 414.72 588.8C414.795 590.744 414.784 592.604 414.703 594.543C414.685 595.109 414.667 595.675 414.649 596.258C414.589 598.07 414.52 599.88 414.45 601.691C414.408 602.918 414.367 604.145 414.326 605.371C414.225 608.381 414.115 611.391 414 614.4C413.263 614.417 412.526 614.435 411.767 614.452C410.788 614.492 409.809 614.533 408.831 614.574C408.346 614.583 407.862 614.593 407.363 614.602C403.794 614.776 402.022 615.65 399.51 618.194C398.551 619.343 397.622 620.518 396.72 621.714C396.107 622.345 395.494 622.976 394.862 623.626C392.577 626.424 392.613 628.937 392.66 632.462C392.654 633.093 392.648 633.724 392.642 634.374C392.626 636.483 392.636 638.592 392.645 640.701C392.639 642.215 392.631 643.729 392.622 645.243C392.602 649.35 392.604 653.457 392.61 657.564C392.612 661.857 392.594 666.151 392.578 670.444C392.551 678.572 392.542 686.701 392.54 694.83C392.537 704.084 392.513 713.339 392.488 722.594C392.436 741.63 392.409 760.666 392.4 779.703C389.074 779.703 385.747 779.703 382.32 779.703C382.32 741.566 382.32 703.429 382.32 664.137C380.182 663.413 380.182 663.413 378 662.674C376.895 662.091 375.809 661.469 374.746 660.811C374.137 660.44 373.529 660.068 372.902 659.685C372.253 659.283 371.604 658.882 370.935 658.469C364.183 654.348 357.354 650.393 350.453 646.535C346.205 644.145 342.074 641.633 338.003 638.943C335.812 637.529 333.556 636.267 331.276 635.009C329.806 634.174 328.389 633.287 326.97 632.366C324.816 630.975 322.621 629.715 320.372 628.491C315.388 625.745 310.535 622.787 305.674 619.824C304.666 619.214 304.666 619.214 303.637 618.591C303.036 618.225 302.434 617.858 301.814 617.481C300.193 616.504 300.193 616.504 298.08 615.863C298.08 615.38 298.08 614.897 298.08 614.4C297.367 614.4 296.654 614.4 295.92 614.4C295.92 613.917 295.92 613.434 295.92 612.937C293.782 612.213 293.782 612.213 291.6 611.474C288.749 609.785 285.898 608.095 282.96 606.354C282.96 684.076 282.96 761.797 282.96 841.874C275.119 841.874 267.278 841.874 259.2 841.874C259.2 788.29 259.2 734.705 259.2 679.497C239.479 679.497 219.758 679.497 199.44 679.497C199.411 663.828 199.411 663.828 199.405 657.173C199.401 652.623 199.395 648.074 199.386 643.524C199.378 639.859 199.374 636.193 199.372 632.527C199.37 631.125 199.368 629.723 199.364 628.321C199.359 626.364 199.358 624.408 199.358 622.452C199.356 621.866 199.353 621.28 199.35 620.677C199.358 616.678 199.358 616.678 200.16 615.863C201.253 615.807 202.349 615.802 203.444 615.817C204.143 615.824 204.843 615.83 205.564 615.837C206.709 615.85 206.709 615.85 207.878 615.863C209.486 615.864 211.095 615.863 212.704 615.86C215.246 615.857 217.787 615.863 220.33 615.9C222.78 615.934 225.227 615.925 227.677 615.909C228.429 615.929 229.181 615.949 229.956 615.97C234.355 615.898 236.585 615.178 239.753 611.991C240.734 610.861 241.698 609.713 242.64 608.549C243.582 607.479 244.527 606.412 245.475 605.349C247.847 602.58 249.294 600.733 249.338 596.975C249.35 596.26 249.362 595.545 249.374 594.809C249.381 594.038 249.387 593.268 249.393 592.474C249.405 591.684 249.417 590.893 249.43 590.078C249.468 587.549 249.497 585.02 249.525 582.491C249.557 579.957 249.59 577.423 249.628 574.889C249.651 573.311 249.67 571.732 249.686 570.154C249.695 569.443 249.705 568.733 249.715 568.001C249.725 567.058 249.725 567.058 249.736 566.097C249.957 563.048 252.156 563.839 254.687 563.839Z" fill="#4D4D4D"/>
<path d="M0 542.72C27.5616 542.72 55.1232 542.72 83.52 542.72C84.24 543.451 84.24 543.451 84.3266 545.205C84.325 545.983 84.3234 546.761 84.3217 547.563C84.3217 548.881 84.3217 548.881 84.3216 550.225C84.3179 551.182 84.3141 552.138 84.3103 553.123C84.309 554.106 84.3079 555.089 84.3072 556.071C84.3045 558.663 84.2974 561.254 84.2894 563.845C84.2821 566.488 84.2788 569.13 84.2752 571.773C84.2674 576.961 84.2551 582.149 84.24 587.337C85.0993 587.439 85.9586 587.541 86.844 587.646C89.3992 587.972 91.8972 588.418 94.4156 588.971C95.2258 589.148 96.036 589.325 96.8708 589.508C97.7219 589.697 98.5731 589.885 99.45 590.08C100.337 590.275 101.224 590.47 102.138 590.671C109.549 592.307 116.947 593.997 124.336 595.729C125.883 596.087 127.431 596.435 128.981 596.777C129.824 596.966 130.667 597.154 131.535 597.349C132.586 597.579 132.586 597.579 133.658 597.814C135.36 598.309 135.36 598.309 137.52 599.771C137.726 601.915 137.792 603.903 137.765 606.047C137.766 606.697 137.766 607.346 137.766 608.015C137.765 610.169 137.748 612.321 137.731 614.474C137.727 615.964 137.724 617.455 137.722 618.945C137.713 622.872 137.692 626.799 137.668 630.727C137.646 634.732 137.636 638.737 137.625 642.743C137.602 650.606 137.565 658.469 137.52 666.331C137.045 666.331 136.57 666.331 136.08 666.331C136.08 666.814 136.08 667.297 136.08 667.794C135.252 667.792 134.425 667.79 133.572 667.788C125.764 667.77 117.957 667.779 110.15 667.815C106.136 667.833 102.122 667.841 98.1086 667.827C94.2335 667.814 90.3593 667.826 86.4843 667.855C85.0074 667.862 83.5305 667.86 82.0536 667.849C79.9812 667.835 77.9112 667.852 75.8389 667.877C75.2309 667.866 74.6229 667.854 73.9964 667.842C70.5648 667.922 68.8022 668.476 66.3263 670.958C65.5614 671.839 64.8122 672.736 64.08 673.646C63.3013 674.546 62.5215 675.445 61.74 676.343C61.3316 676.824 60.9232 677.305 60.5025 677.8C58.6646 679.933 56.7857 682.025 54.9 684.114C54.5601 684.492 54.2201 684.869 53.8699 685.258C51.2241 688.184 51.2241 688.184 49.9491 689.288C48.6556 690.832 48.6764 691.728 48.6487 693.739C48.6272 694.741 48.6272 694.741 48.6052 695.763C48.5984 696.812 48.5984 696.812 48.5916 697.883C48.5796 698.528 48.5676 699.172 48.5553 699.837C48.5136 702.245 48.4904 704.654 48.465 707.063C48.3907 712.448 48.3165 717.834 48.24 723.383C32.3208 723.383 16.4016 723.383 0 723.383C0 663.764 0 604.145 0 542.72Z" fill="#B2B2B2"/>
<path d="M1082.88 697.051C1084.66 697.414 1084.66 697.414 1086.48 697.783C1086.48 701.162 1086.48 704.541 1086.48 708.023C1093.24 708.694 1099.95 708.878 1106.74 708.904C1107.89 708.912 1109.03 708.919 1110.17 708.926C1113.25 708.946 1116.33 708.962 1119.4 708.976C1122.63 708.992 1125.86 709.012 1129.08 709.032C1135.18 709.068 1141.27 709.101 1147.37 709.133C1155.62 709.176 1163.86 709.224 1172.11 709.272C1185.09 709.348 1198.06 709.416 1211.04 709.486C1211.04 731.933 1211.04 754.381 1211.04 777.509C1179.68 777.509 1148.31 777.509 1116 777.509C1116 844.127 1116 910.746 1116 979.383C1106.21 982.699 1095.36 980.114 1085.04 980.114C1085.04 886.945 1085.04 793.776 1085.04 697.783C1084.33 697.542 1083.61 697.3 1082.88 697.051Z" fill="#474648"/>
<path d="M659.52 698.514C680.429 698.514 701.338 698.514 722.88 698.514C722.88 734.961 722.88 771.408 722.88 808.96C729.77 808.96 736.661 808.96 743.76 808.96C743.76 834.304 743.76 859.648 743.76 885.76C724.752 885.76 705.744 885.76 686.16 885.76C685.162 883.732 685.367 882.105 685.384 879.836C685.388 878.899 685.392 877.961 685.396 876.995C685.401 876.241 685.401 876.241 685.407 875.472C685.42 872.809 685.409 870.146 685.402 867.483C685.393 864.094 685.392 860.706 685.423 857.317C685.447 854.579 685.443 851.842 685.42 849.103C685.417 848.062 685.423 847.02 685.44 845.978C685.728 840.176 685.728 840.176 683.391 835.164C681.84 833.956 681.84 833.956 680.196 833.09C679.788 832.851 679.38 832.612 678.96 832.366C678.96 831.883 678.96 831.4 678.96 830.903C678.359 830.654 678.359 830.654 677.745 830.4C675.63 829.181 674.195 827.525 672.48 825.783C670.92 824.836 670.92 824.836 669.6 824.32C669.6 823.837 669.6 823.355 669.6 822.857C669.125 822.857 668.65 822.857 668.16 822.857C668.16 822.374 668.16 821.892 668.16 821.394C667.685 821.394 667.21 821.394 666.72 821.394C666.72 820.912 666.72 820.429 666.72 819.931C666.074 819.818 666.074 819.818 665.415 819.703C663.618 819.129 662.935 818.396 661.68 817.006C661.205 816.764 660.73 816.523 660.24 816.274C660.24 815.792 660.24 815.309 660.24 814.811C659.765 814.57 659.29 814.329 658.8 814.08C659.038 775.943 659.275 737.807 659.52 698.514Z" fill="#484749"/>
<path d="M950.548 604.808C951.71 604.809 951.71 604.809 952.895 604.809C953.708 604.812 954.521 604.816 955.358 604.82C956.106 604.821 956.854 604.821 957.625 604.822C960.422 604.826 963.218 604.836 966.015 604.846C975.393 604.868 975.393 604.868 984.96 604.891C984.96 618.65 984.96 632.408 984.96 646.583C993.523 646.57 993.523 646.57 1002.26 646.557C1005.87 646.553 1009.47 646.55 1013.08 646.547C1018.81 646.543 1024.54 646.538 1030.27 646.528C1034.88 646.52 1039.5 646.515 1044.12 646.513C1045.88 646.512 1047.65 646.509 1049.42 646.506C1051.88 646.5 1054.34 646.499 1056.81 646.5C1057.55 646.497 1058.28 646.495 1059.04 646.492C1059.71 646.493 1060.38 646.494 1061.07 646.495C1061.65 646.494 1062.23 646.494 1062.83 646.493C1064.16 646.583 1064.16 646.583 1064.88 647.314C1064.95 649.087 1064.98 650.838 1064.97 652.611C1064.98 653.443 1064.98 653.443 1064.98 654.291C1064.98 656.132 1064.98 657.973 1064.98 659.814C1064.98 661.089 1064.98 662.363 1064.98 663.638C1064.98 666.313 1064.98 668.989 1064.97 671.664C1064.97 675.099 1064.97 678.533 1064.98 681.968C1064.98 684.601 1064.98 687.235 1064.98 689.868C1064.98 691.135 1064.98 692.401 1064.98 693.668C1064.98 695.437 1064.98 697.205 1064.97 698.974C1064.97 699.501 1064.98 700.028 1064.98 700.571C1064.96 704.199 1064.96 704.199 1064.16 705.829C1063.68 705.829 1063.21 705.829 1062.72 705.829C1062.72 706.311 1062.72 706.794 1062.72 707.291C1059.13 709.239 1055.53 708.949 1051.57 708.92C1050.81 708.921 1050.06 708.921 1049.27 708.921C1046.77 708.92 1044.26 708.909 1041.76 708.897C1040.02 708.894 1038.28 708.892 1036.54 708.891C1031.97 708.885 1027.4 708.871 1022.83 708.855C1018.16 708.84 1013.49 708.833 1008.83 708.826C999.67 708.81 990.515 708.784 981.36 708.754C981.36 717.685 981.36 726.616 981.36 735.817C980.885 735.817 980.41 735.817 979.92 735.817C978.742 737.251 978.742 737.251 977.76 738.743C977.76 738.26 977.76 737.777 977.76 737.28C975.913 739.156 975.931 740.555 975.6 743.131C975.362 743.131 975.125 743.131 974.88 743.131C974.88 710.546 974.88 677.961 974.88 644.389C964.901 644.389 954.922 644.389 944.64 644.389C944.64 631.596 944.64 618.803 944.64 605.623C946.821 604.884 948.269 604.803 950.548 604.808Z" fill="#B1B1B1"/>
<path d="M1242.72 543.451C1276.7 543.451 1310.67 543.451 1345.68 543.451C1345.68 572.899 1345.68 602.346 1345.68 632.686C1322.48 632.686 1322.48 632.686 1317.1 627.329C1316.56 626.683 1316.01 626.037 1315.44 625.371C1312.78 622.581 1309.98 620.023 1307.07 617.509C1306.63 617.126 1306.19 616.744 1305.73 616.349C1302.4 613.467 1299.02 610.643 1295.62 607.846C1293.48 606.056 1291.44 604.182 1289.41 602.266C1286.54 600.045 1283.78 599.585 1280.24 599.538C1279.39 599.524 1278.54 599.509 1277.67 599.494C1276.79 599.485 1275.9 599.477 1274.99 599.469C1273.77 599.449 1273.77 599.449 1272.52 599.429C1269.47 599.383 1266.42 599.35 1263.37 599.314C1256.56 599.224 1249.74 599.133 1242.72 599.04C1242.72 580.696 1242.72 562.352 1242.72 543.451Z" fill="#515151"/>
<path d="M945.36 644.389C955.102 644.389 964.843 644.389 974.88 644.389C975.118 675.284 975.355 706.18 975.6 738.011C977.026 737.649 977.026 737.649 978.48 737.28C979.414 735.458 979.414 735.458 979.92 733.623C980.158 733.623 980.395 733.623 980.64 733.623C980.878 725.416 981.115 717.21 981.36 708.754C983.697 708.736 986.033 708.718 988.441 708.699C996.157 708.638 1003.87 708.573 1011.59 708.506C1016.27 708.466 1020.95 708.427 1025.63 708.391C1030.14 708.356 1034.65 708.317 1039.17 708.277C1040.89 708.262 1042.62 708.248 1044.34 708.236C1046.75 708.218 1049.16 708.196 1051.57 708.173C1052.29 708.169 1053 708.165 1053.74 708.16C1054.73 708.15 1054.73 708.15 1055.74 708.139C1056.31 708.134 1056.88 708.129 1057.46 708.124C1059.27 708.014 1060.96 707.689 1062.72 707.291C1060.94 709.464 1060.94 709.464 1059.12 711.68C1058.64 711.515 1058.16 711.35 1057.66 711.18C1054.75 710.866 1052.63 711.918 1050.03 713.097C1044.96 715.337 1044.96 715.337 1042.56 715.337C1042.56 715.82 1042.56 716.303 1042.56 716.8C1041.99 717.013 1041.43 717.226 1040.84 717.446C1035.04 719.663 1029.44 722.155 1023.84 724.846C1022.37 725.551 1020.9 726.252 1019.43 726.949C1018.8 727.248 1018.18 727.548 1017.53 727.857C1015.92 728.503 1015.92 728.503 1013.76 728.503C1013.76 728.986 1013.76 729.468 1013.76 729.966C1012.97 730.266 1012.18 730.565 1011.37 730.874C1010.32 731.272 1009.27 731.67 1008.22 732.069C1007.71 732.266 1007.19 732.463 1006.65 732.666C1006.14 732.859 1005.64 733.052 1005.11 733.251C1004.65 733.428 1004.18 733.604 1003.71 733.785C1002.01 734.443 1000.33 735.132 998.64 735.817C998.402 791.574 998.165 847.331 997.92 904.777C990.317 904.777 982.714 904.777 974.88 904.777C974.752 886.598 974.633 868.419 974.52 850.24C974.516 849.55 974.511 848.86 974.507 848.148C974.21 800.16 974.095 752.172 974.115 704.183C974.115 703.437 974.116 702.69 974.116 701.922C974.124 682.988 974.139 664.054 974.16 645.12C964.656 645.12 955.152 645.12 945.36 645.12C945.36 644.879 945.36 644.637 945.36 644.389ZM979.2 749.714C978.962 752.128 978.725 754.542 978.48 757.029C978.005 757.029 977.53 757.029 977.04 757.029C976.802 756.304 976.565 755.58 976.32 754.834C975.686 760.126 975.509 765.324 975.555 770.651C975.558 771.386 975.561 772.12 975.565 772.877C975.573 774.665 975.585 776.452 975.6 778.24C976.075 778.24 976.55 778.24 977.04 778.24C977.515 777.275 977.99 776.309 978.48 775.314C978.48 776.28 978.48 777.245 978.48 778.24C979.549 777.878 979.549 777.878 980.64 777.509C980.676 774.02 980.702 770.533 980.719 767.044C980.726 765.858 980.736 764.672 980.749 763.486C980.766 761.779 980.774 760.072 980.781 758.366C980.788 757.837 980.795 757.308 980.803 756.763C980.804 753.81 980.542 752.44 979.2 749.714Z" fill="#474648"/>
<path d="M359.28 587.337C366.296 587.303 373.312 587.277 380.328 587.261C383.585 587.254 386.843 587.243 390.1 587.227C393.242 587.211 396.384 587.202 399.526 587.198C400.726 587.196 401.927 587.19 403.127 587.182C404.805 587.172 406.482 587.17 408.159 587.171C408.659 587.166 409.159 587.161 409.674 587.155C413.116 587.17 413.116 587.17 414.72 588.8C414.795 590.744 414.784 592.604 414.703 594.543C414.685 595.109 414.667 595.675 414.649 596.258C414.589 598.07 414.52 599.881 414.45 601.691C414.408 602.918 414.367 604.145 414.326 605.371C414.225 608.381 414.115 611.391 414 614.4C413.263 614.417 412.526 614.435 411.767 614.452C410.788 614.492 409.809 614.533 408.831 614.574C408.104 614.588 408.104 614.588 407.363 614.602C403.794 614.776 402.022 615.65 399.51 618.194C398.551 619.343 397.622 620.518 396.72 621.714C396.107 622.345 395.494 622.976 394.862 623.626C392.577 626.424 392.613 628.937 392.66 632.462C392.651 633.408 392.651 633.408 392.642 634.374C392.626 636.483 392.636 638.592 392.645 640.701C392.639 642.215 392.631 643.729 392.622 645.243C392.602 649.35 392.604 653.457 392.61 657.564C392.612 661.857 392.594 666.151 392.578 670.444C392.551 678.573 392.542 686.701 392.54 694.83C392.537 704.084 392.513 713.339 392.488 722.594C392.436 741.63 392.409 760.666 392.4 779.703C389.074 779.703 385.747 779.703 382.32 779.703C382.32 741.566 382.32 703.43 382.32 664.137C380.182 663.413 380.182 663.413 378 662.674C376.743 662.005 375.506 661.297 374.29 660.554C373.612 660.143 372.934 659.732 372.236 659.309C371.539 658.881 370.843 658.452 370.125 658.011C368.739 657.167 367.352 656.324 365.965 655.48C365.051 654.919 365.051 654.919 364.118 654.348C361.802 652.949 359.459 651.598 357.12 650.24C357.12 629.965 357.12 609.69 357.12 588.8C357.833 588.8 358.546 588.8 359.28 588.8C359.28 588.317 359.28 587.835 359.28 587.337Z" fill="#B1B1B1"/>
<path d="M201.559 615.775C202.171 615.777 202.783 615.778 203.414 615.78C204.452 615.78 204.452 615.78 205.511 615.78C206.639 615.786 206.639 615.786 207.79 615.791C208.556 615.792 209.322 615.794 210.112 615.795C212.57 615.799 215.027 615.808 217.485 615.817C219.147 615.821 220.808 615.824 222.47 615.827C226.553 615.835 230.637 615.847 234.72 615.863C234.72 618.789 234.72 618.789 233.795 619.835C233.399 620.157 233.003 620.479 232.595 620.811C230.693 622.629 230.419 623.086 229.853 625.843C229.828 626.843 229.826 627.845 229.843 628.845C229.836 629.395 229.828 629.945 229.82 630.512C229.8 632.317 229.81 634.121 229.821 635.926C229.813 637.182 229.803 638.439 229.791 639.695C229.765 642.992 229.765 646.289 229.77 649.586C229.77 653.548 229.739 657.509 229.713 661.47C229.678 667.479 229.683 673.487 229.68 679.497C219.701 679.497 209.722 679.497 199.44 679.497C199.411 663.828 199.411 663.828 199.405 657.173C199.401 652.623 199.395 648.074 199.386 643.524C199.378 639.859 199.374 636.193 199.372 632.527C199.37 631.125 199.368 629.723 199.364 628.321C199.359 626.365 199.358 624.408 199.358 622.452C199.356 621.866 199.353 621.28 199.35 620.677C199.359 615.913 199.359 615.913 201.559 615.775Z" fill="#B1B1B1"/>
<path d="M945.36 644.389C955.102 644.389 964.843 644.389 974.88 644.389C975.118 675.284 975.355 706.18 975.6 738.011C977.026 737.649 977.026 737.649 978.48 737.28C979.414 735.458 979.414 735.458 979.92 733.623C980.158 733.623 980.395 733.623 980.64 733.623C980.878 725.416 981.115 717.21 981.36 708.754C1006.55 708.754 1031.73 708.754 1057.68 708.754C1057.68 708.996 1057.68 709.237 1057.68 709.486C1032.73 709.486 1007.78 709.486 982.08 709.486C982.08 720.83 982.08 732.175 982.08 743.863C981.605 746.035 981.13 748.208 980.64 750.446C980.402 750.446 980.165 750.446 979.92 750.446C979.445 752.618 978.97 754.79 978.48 757.029C978.005 757.029 977.53 757.029 977.04 757.029C976.802 756.304 976.565 755.58 976.32 754.834C975.845 755.8 975.37 756.765 974.88 757.76C974.274 751.061 974.06 744.43 974.078 737.705C974.078 736.687 974.078 735.67 974.078 734.652C974.078 731.922 974.082 729.192 974.087 726.462C974.092 723.597 974.092 720.732 974.093 717.867C974.095 712.456 974.101 707.045 974.108 701.634C974.116 695.467 974.12 689.301 974.124 683.134C974.131 670.463 974.144 657.791 974.16 645.12C964.656 645.12 955.152 645.12 945.36 645.12C945.36 644.879 945.36 644.637 945.36 644.389Z" fill="#676768"/>
<path d="M1157.76 456.411C1158.47 456.411 1159.19 456.411 1159.92 456.411C1159.92 456.813 1159.91 457.215 1159.91 457.628C1159.79 470.998 1159.67 484.368 1159.56 497.737C1159.56 498.256 1159.55 498.775 1159.55 499.309C1159.27 532.797 1159.13 566.283 1159.15 599.771C1159.16 600.256 1159.16 600.741 1159.16 601.24C1159.16 613.429 1159.18 625.617 1159.2 637.806C1158.01 635.683 1157.58 634.169 1157.58 631.733C1157.58 631.105 1157.58 630.478 1157.57 629.831C1157.58 629.145 1157.58 628.459 1157.59 627.753C1157.59 627.022 1157.58 626.29 1157.58 625.537C1157.58 623.079 1157.59 620.622 1157.6 618.165C1157.6 616.406 1157.6 614.648 1157.6 612.889C1157.6 609.099 1157.6 605.309 1157.61 601.519C1157.62 596.039 1157.62 590.56 1157.62 585.08C1157.63 576.19 1157.64 567.3 1157.65 558.409C1157.66 549.773 1157.67 541.137 1157.68 532.501C1157.68 531.968 1157.68 531.436 1157.68 530.888C1157.68 528.217 1157.69 525.547 1157.69 522.876C1157.7 500.721 1157.73 478.566 1157.76 456.411Z" fill="#AAAAAA"/>
<path d="M250.56 563.931C285.725 563.931 320.89 563.931 357.12 563.931C357.12 571.655 357.12 579.379 357.12 587.337C356.645 587.337 356.17 587.337 355.68 587.337C355.68 580.096 355.68 572.855 355.68 565.394C321.228 565.394 286.776 565.394 251.28 565.394C251.28 577.222 251.28 589.049 251.28 601.234C251.042 601.234 250.805 601.234 250.56 601.234C250.56 588.924 250.56 576.614 250.56 563.931Z" fill="#404040"/>
<path d="M1391.76 648.046C1392.47 648.046 1393.19 648.046 1393.92 648.046C1393.68 648.77 1393.44 649.494 1393.2 650.24C1393.13 652.348 1393.1 654.439 1393.11 656.547C1393.11 657.199 1393.11 657.851 1393.11 658.523C1393.1 660.716 1393.1 662.91 1393.11 665.103C1393.11 666.672 1393.1 668.241 1393.1 669.81C1393.1 674.077 1393.1 678.345 1393.1 682.612C1393.1 687.071 1393.1 691.529 1393.1 695.988C1393.1 703.475 1393.1 710.963 1393.11 718.45C1393.11 727.118 1393.11 735.785 1393.1 744.452C1393.1 751.883 1393.1 759.314 1393.1 766.745C1393.1 771.188 1393.1 775.631 1393.1 780.074C1393.1 784.249 1393.1 788.425 1393.11 792.6C1393.11 794.136 1393.11 795.673 1393.1 797.209C1393.1 799.298 1393.1 801.388 1393.11 803.477C1393.11 804.092 1393.11 804.706 1393.1 805.339C1393.04 808.343 1393.04 808.343 1393.92 811.154C1393.21 810.913 1392.49 810.672 1391.76 810.423C1391.76 756.838 1391.76 703.254 1391.76 648.046Z" fill="#3E3E40"/>
<path d="M902.88 550.034C907.157 550.034 911.434 550.034 915.84 550.034C915.84 555.827 915.84 561.62 915.84 567.589C925.344 567.589 934.848 567.589 944.64 567.589C944.64 567.83 944.64 568.071 944.64 568.32C944.091 568.426 943.541 568.531 942.975 568.64C940.981 569.025 940.981 569.025 938.88 569.783C938.88 570.266 938.88 570.748 938.88 571.246C935.857 571.264 932.833 571.277 929.81 571.286C928.782 571.29 927.754 571.295 926.726 571.301C925.246 571.31 923.766 571.314 922.286 571.317C920.951 571.323 920.951 571.323 919.59 571.329C917.702 571.261 916.188 571.087 914.4 570.514C913.925 571.238 913.45 571.963 912.96 572.709C912.247 572.467 911.534 572.226 910.8 571.977C911.038 570.77 911.275 569.563 911.52 568.32C912.47 568.079 913.421 567.837 914.4 567.589C914.638 562.037 914.875 556.486 915.12 550.766C911.081 550.766 907.042 550.766 902.88 550.766C902.88 550.524 902.88 550.283 902.88 550.034Z" fill="#3C3A3D"/>
<path d="M1347.84 632.686C1359.24 632.686 1370.65 632.686 1382.4 632.686C1382.16 633.41 1381.92 634.134 1381.68 634.88C1370.75 634.88 1359.82 634.88 1348.56 634.88C1348.32 634.156 1348.08 633.432 1347.84 632.686Z" fill="#38383A"/>
<path d="M796.32 604.891C797.033 605.133 797.746 605.374 798.48 605.623C798.48 611.899 798.48 618.174 798.48 624.64C786.125 624.64 773.77 624.64 761.04 624.64C761.04 624.399 761.04 624.157 761.04 623.909C772.682 623.909 784.325 623.909 796.32 623.909C796.32 617.633 796.32 611.357 796.32 604.891Z" fill="#9A9A9A"/>
<path d="M751.68 634.88C752.393 635.604 753.106 636.328 753.84 637.074C753.365 637.074 752.89 637.074 752.4 637.074C752.4 637.798 752.4 638.523 752.4 639.269C752.875 639.027 753.35 638.786 753.84 638.537C753.84 639.985 753.84 641.434 753.84 642.926C753.127 643.167 752.414 643.408 751.68 643.657C751.68 643.174 751.68 642.692 751.68 642.194C749.497 641.945 749.497 641.945 748.26 643.383C747.066 645.687 747.472 647.037 748.08 649.509C746.892 649.509 745.704 649.509 744.48 649.509C744.03 647.131 743.893 645.972 744.48 643.657C746.643 640.496 749.097 637.691 751.68 634.88Z" fill="#3C3C3D"/>
<path d="M1062.72 684.617C1062.96 685.341 1063.2 686.065 1063.44 686.811C1063.92 686.811 1064.39 686.811 1064.88 686.811C1064.9 689.707 1064.91 692.602 1064.92 695.497C1064.93 696.322 1064.94 697.147 1064.94 697.997C1064.95 698.784 1064.95 699.572 1064.95 700.383C1064.95 701.111 1064.96 701.838 1064.96 702.588C1064.88 704.366 1064.88 704.366 1064.16 705.829C1063.68 705.829 1063.21 705.829 1062.72 705.829C1062.72 698.829 1062.72 691.829 1062.72 684.617Z" fill="#A1A1A1"/>
<path d="M1100.16 686.08C1098.73 686.804 1098.73 686.804 1097.28 687.543C1097.28 694.543 1097.28 701.542 1097.28 708.754C1096.57 708.513 1095.85 708.272 1095.12 708.023C1095.12 700.782 1095.12 693.541 1095.12 686.08C1097.38 685.316 1097.99 685.397 1100.16 686.08Z" fill="#999999"/>
<path d="M981.36 727.771C981.36 730.427 981.36 733.082 981.36 735.817C980.885 735.817 980.41 735.817 979.92 735.817C978.742 737.251 978.742 737.251 977.76 738.743C977.76 738.26 977.76 737.777 977.76 737.28C975.913 739.156 975.931 740.555 975.6 743.131C975.362 743.131 975.125 743.131 974.88 743.131C974.88 740.476 974.88 737.821 974.88 735.086C975.593 734.844 976.306 734.603 977.04 734.354C977.721 733.012 977.721 733.012 978.165 731.429C978.663 729.829 978.663 729.829 979.2 728.503C980.64 727.771 980.64 727.771 981.36 727.771Z" fill="#929292"/>
<path d="M249.84 564.663C250.078 564.663 250.315 564.663 250.56 564.663C250.633 569.908 250.683 575.154 250.718 580.399C250.733 582.184 250.752 583.968 250.777 585.752C250.812 588.318 250.829 590.883 250.841 593.449C250.856 594.246 250.871 595.043 250.886 595.864C250.888 601.4 250.888 601.4 249.192 604.327C247.68 605.623 247.68 605.623 246.24 605.623C247.107 603.799 248.007 602.199 249.12 600.503C249.355 598.835 249.355 598.835 249.35 596.964C249.364 596.246 249.378 595.529 249.393 594.79C249.405 593.631 249.405 593.631 249.418 592.449C249.432 591.656 249.446 590.864 249.46 590.047C249.503 587.514 249.537 584.98 249.57 582.446C249.597 580.729 249.626 579.012 249.654 577.296C249.724 573.085 249.785 568.874 249.84 564.663Z" fill="#474747"/>
<path d="M980.64 748.251C980.878 748.251 981.115 748.251 981.36 748.251C981.598 758.389 981.835 768.527 982.08 778.971C980.654 778.971 979.229 778.971 977.76 778.971C978.473 778.489 979.186 778.006 979.92 777.509C980.103 775.458 980.153 773.571 980.106 771.523C980.101 770.929 980.096 770.336 980.091 769.725C980.074 767.824 980.043 765.923 980.01 764.023C979.985 762.125 979.963 760.227 979.944 758.329C979.932 757.147 979.915 755.965 979.894 754.783C979.863 752.4 979.892 750.53 980.64 748.251Z" fill="#525252"/>
<path d="M1074.96 702.171C1074.96 702.896 1074.96 703.62 1074.96 704.366C1074.01 704.366 1073.06 704.366 1072.08 704.366C1071.84 704.848 1071.6 705.331 1071.36 705.829C1069.72 706.917 1068.87 707.336 1066.91 707.109C1065.6 706.56 1065.6 706.56 1064.88 705.097C1066.15 704.464 1067.43 703.841 1068.71 703.223C1069.42 702.875 1070.13 702.527 1070.86 702.169C1072.8 701.44 1072.8 701.44 1074.96 702.171Z" fill="#363636"/>
<path d="M607.68 590.263C604.26 592.457 604.26 592.457 602.64 592.457C602.64 592.94 602.64 593.423 602.64 593.92C602.204 594.089 601.768 594.258 601.318 594.431C596.821 596.209 592.522 598.245 588.24 600.503C588.24 600.02 588.24 599.537 588.24 599.04C590.932 597.425 593.635 595.831 596.34 594.24C597.106 593.78 597.871 593.321 598.66 592.847C599.398 592.416 600.136 591.984 600.896 591.54C601.575 591.138 602.254 590.736 602.953 590.321C604.959 589.463 605.697 589.448 607.68 590.263Z" fill="#A9A9A9"/>
<path d="M1391.76 648.046C1392.47 648.046 1393.19 648.046 1393.92 648.046C1393.68 648.77 1393.44 649.494 1393.2 650.24C1393.09 652.396 1393.01 654.537 1392.97 656.694C1392.96 657.324 1392.94 657.954 1392.93 658.604C1392.88 660.616 1392.84 662.628 1392.79 664.64C1392.76 666.004 1392.73 667.369 1392.7 668.733C1392.62 672.077 1392.55 675.421 1392.48 678.766C1392.24 678.766 1392 678.766 1391.76 678.766C1391.76 668.628 1391.76 658.491 1391.76 648.046Z" fill="#454547"/>
<path d="M748.8 640.731C749.038 641.214 749.275 641.697 749.52 642.194C749.149 642.587 748.778 642.979 748.395 643.383C747.125 645.124 747.125 645.124 747.585 647.497C747.748 648.161 747.912 648.825 748.08 649.509C746.892 649.509 745.704 649.509 744.48 649.509C744.216 644.053 744.216 644.053 745.425 642.24C746.64 641.463 746.64 641.463 748.8 640.731Z" fill="#38383A"/>
<path d="M979.92 733.623C981.458 735.966 981.527 736.563 981.45 739.246C981.437 739.837 981.424 740.428 981.411 741.037C981.386 741.712 981.386 741.712 981.36 742.4C980.885 741.917 980.41 741.435 979.92 740.937C979.207 741.661 978.494 742.385 977.76 743.131C977.484 739.305 978.323 737.004 979.92 733.623Z" fill="#6E6E6E"/>
<path d="M903.6 551.497C906.451 551.497 909.302 551.497 912.24 551.497C912.002 552.704 911.765 553.911 911.52 555.154C911.045 555.154 910.57 555.154 910.08 555.154C909.842 554.672 909.605 554.189 909.36 553.691C906.747 553.581 906.747 553.581 904.32 554.423C904.082 553.457 903.845 552.492 903.6 551.497Z" fill="#3B3A3C"/>
<path d="M64.08 672.914C64.08 675.109 64.08 675.109 64.08 675.109V672.914ZM61.2 676.571C61.6752 677.054 62.1504 677.537 62.64 678.034C61.452 679.965 60.264 681.896 59.04 683.886C58.3272 683.162 57.6144 682.438 56.88 681.691C58.3056 680.002 59.7312 678.312 61.2 676.571Z" fill="#535353"/>
<path d="M412.56 587.337C413.629 588.061 413.629 588.061 414.72 588.8C414.899 590.242 414.899 590.242 414.773 591.983C414.734 592.605 414.695 593.227 414.654 593.869C414.601 594.519 414.549 595.17 414.495 595.84C414.451 596.496 414.407 597.152 414.361 597.829C414.251 599.452 414.13 601.075 414 602.697C413.762 602.697 413.525 602.697 413.28 602.697C412.665 597.557 412.473 592.514 412.56 587.337Z" fill="#ACACAC"/>
<path d="M194.29 680.157C195.767 680.181 197.243 680.205 198.72 680.229C198.482 681.435 198.245 682.642 198 683.886C196.245 683.611 196.245 683.611 194.4 683.154C194.162 682.672 193.925 682.189 193.68 681.691C193.205 681.45 192.73 681.209 192.24 680.96C192.96 680.229 192.96 680.229 194.29 680.157Z" fill="#353537"/>
<path d="M1062.72 708.023C1061.19 709.897 1061.19 709.897 1059.12 711.68C1056.74 711.543 1056.74 711.543 1054.8 710.949C1054.8 710.466 1054.8 709.983 1054.8 709.486C1055.85 709.098 1056.9 708.719 1057.95 708.343C1058.53 708.131 1059.12 707.919 1059.72 707.7C1061.28 707.291 1061.28 707.291 1062.72 708.023Z" fill="#3C3C3E"/>
<path d="M528.48 632.686C529.906 632.686 531.331 632.686 532.8 632.686C531.618 634.164 530.417 635.626 529.2 637.074C528.962 637.074 528.725 637.074 528.48 637.074C528.48 635.626 528.48 634.178 528.48 632.686Z" fill="#A1A1A1"/>
<path d="M1432.8 601.234C1435.64 601.646 1437.66 602.462 1440 604.16C1440 604.643 1440 605.125 1440 605.623C1436.81 604.739 1434.97 603.782 1432.8 601.234Z" fill="#A6A6A6"/>
<path d="M56.16 679.497C56.6352 679.98 57.1104 680.463 57.6 680.96C56.412 682.167 55.224 683.374 54 684.617C54 681.691 54 681.691 55.08 680.411C55.4364 680.11 55.7928 679.808 56.16 679.497Z" fill="#A7A7A7"/>
<path d="M239.76 611.474C240.235 611.716 240.71 611.957 241.2 612.206C240.66 613.989 240.66 613.989 239.76 615.863C238.23 616.457 238.23 616.457 236.88 616.594C237.286 614.203 237.96 613.065 239.76 611.474Z" fill="#474747"/>
<path d="M375.12 660.48C376.546 661.204 377.971 661.928 379.44 662.674C378.727 663.398 378.014 664.122 377.28 664.869C376.567 664.386 375.854 663.903 375.12 663.406C375.12 662.44 375.12 661.475 375.12 660.48Z" fill="#3B3B3D"/>
<path d="M1062.72 684.617C1062.96 685.341 1063.2 686.065 1063.44 686.811C1063.92 686.811 1064.39 686.811 1064.88 686.811C1064.88 687.777 1064.88 688.742 1064.88 689.737C1064.4 689.737 1063.93 689.737 1063.44 689.737C1063.2 690.22 1062.96 690.703 1062.72 691.2C1062.72 689.028 1062.72 686.855 1062.72 684.617Z" fill="#A8A8A8"/>
<path d="M751.68 634.88C752.393 635.604 753.106 636.328 753.84 637.074C753.365 637.074 752.89 637.074 752.4 637.074C751.925 638.04 751.45 639.005 750.96 640C750.24 637.806 750.24 637.806 750.915 636.206C751.294 635.549 751.294 635.549 751.68 634.88Z" fill="#434345"/>
</g>
<defs>
<clipPath id="clip0_38_80">
<rect width="1440" height="1024" fill="white"/>
</clipPath>
</defs>
</svg>
